<?xml version="1.0" encoding="UTF-8"?>
<svg version="1.1" xmlns="http://www.w3.org/2000/svg" width="512" height="512">
<!-- outline -->
<path d="M0 0 C5.70269988 3.65833577 9.25228843 8.87558264 12 15 C12.05220703 15.68392822 12.10441406 16.36785645 12.15820312 17.07250977 C12.39425464 19.76046047 12.77715299 21.57863867 14 24 C17.97857366 27.14430625 22.45142096 29.24872103 27 31.4375 C28.27565292 32.08089691 29.54957769 32.72773127 30.82177734 33.37792969 C33.35491311 34.6693821 35.89430398 35.94676109 38.44042969 37.21240234 C43.22986908 39.61763384 47.93696909 42.15392396 52.625 44.75 C53.3571875 45.14372803 54.089375 45.53745605 54.84375 45.94311523 C58.09132228 47.72841123 59.90792662 48.86188993 62 52 C62.04769531 53.11117187 62.09539062 54.22234375 62.14453125 55.3671875 C63.06458554 59.27426736 63.2802121 59.64230452 66.38671875 61.7578125 C67.80588265 62.5725422 69.24036474 63.36105614 70.6875 64.125 C71.39583984 64.5478125 72.10417969 64.970625 72.83398438 65.40625 C74.90008543 66.54327329 76.70826524 67.43808152 79 68 C82.16368696 66.75412943 82.16368696 66.75412943 85 65 C91.04978712 64.95653889 96.30967585 68.51868085 101.5 71.3125 C102.50667725 71.84649414 103.51335449 72.38048828 104.55053711 72.93066406 C107.7062441 74.60970773 110.85412849 76.30260842 114 78 C114.98887207 78.53222168 115.97774414 79.06444336 116.99658203 79.61279297 C122.53718396 82.59990817 128.05781218 85.62091084 133.56591797 88.66748047 C135.81433078 89.89835681 138.07648646 91.09695636 140.34765625 92.28515625 C141.60692303 92.96065386 142.86604971 93.63641273 144.125 94.3125 C145.17945313 94.86550781 146.23390625 95.41851562 147.3203125 95.98828125 C151.29768473 98.97420938 153.44056224 102.46607605 154.53125 107.40625 C154.5209375 108.0971875 154.510625 108.788125 154.5 109.5 C154.51546875 110.53640625 154.51546875 110.53640625 154.53125 111.59375 C153.11136405 118.02499811 148.76125744 122.67037584 144.3125 127.25 C140.52688551 131.24263579 136.88224436 135.26589648 133.4375 139.5625 C130.24286365 143.54422067 126.91349629 147.32933118 123.4375 151.0625 C115.3574709 159.39928605 115.3574709 159.39928605 109 169 C109.55352142 169.11410217 110.10704285 169.22820435 110.67733765 169.34576416 C115.99767863 170.47962234 121.13250109 171.88349452 126.2890625 173.609375 C127.03658783 173.8586676 127.78411316 174.10796021 128.55429077 174.36480713 C130.11979317 174.88989263 131.68437395 175.41773344 133.24804688 175.94824219 C135.62155875 176.74883925 138.0018048 177.52671506 140.3828125 178.3046875 C141.91453166 178.82152833 143.44579823 179.33971282 144.9765625 179.859375 C145.67778229 180.08461853 146.37900208 180.30986206 147.10147095 180.54193115 C153.22496699 182.67090799 158.44649821 186.0224549 161.5 191.875 C162.44976808 197.8110505 162.096866 201.38897807 158.75 206.3046875 C154.16779511 211.41136982 148.02874506 214.12267226 142 217.1875 C140.75386435 217.8351074 139.50859239 218.48437924 138.26416016 219.13525391 C135.74036947 220.45441645 133.21349549 221.7673715 130.68457031 223.07666016 C125.20261093 225.92563577 119.78935949 228.90011228 114.375 231.875 C112.59137326 232.85197781 110.80754061 233.82857987 109.0234375 234.8046875 C108.29044434 235.20671387 107.55745117 235.60874023 106.80224609 236.02294922 C105.54641094 236.70377451 104.2776995 237.36115025 103 238 C102.99786247 239.90227859 102.99786247 239.90227859 102.99568176 241.84298706 C102.97898189 253.81898913 102.93611654 265.79465271 102.86790943 277.77047539 C102.83368023 283.92678535 102.8085357 290.0828482 102.80444336 296.23925781 C102.80015182 302.18524252 102.77161705 308.13067019 102.72656822 314.07648087 C102.71362074 316.34012731 102.70927573 318.60384052 102.71384621 320.86751938 C102.71877154 324.04884063 102.69257229 327.22854587 102.65942383 330.40966797 C102.67236229 331.80042793 102.67236229 331.80042793 102.68556213 333.21928406 C102.55152302 340.93858577 100.23157629 347.75434651 94.70214844 353.30786133 C93.9290332 353.7902124 93.15591797 354.27256348 92.359375 354.76953125 C91.48732422 355.3207666 90.61527344 355.87200195 89.71679688 356.43994141 C85.28635177 358.98402338 80.81311572 361.38990133 76.25 363.6875 C74.21134769 364.7326371 72.17360897 365.77955788 70.13671875 366.828125 C69.11239746 367.35470703 68.08807617 367.88128906 67.03271484 368.42382812 C62.33987791 370.86280375 57.69903222 373.39350245 53.0625 375.9375 C52.16354004 376.43024414 51.26458008 376.92298828 50.33837891 377.43066406 C48.49873183 378.43921814 46.65921459 379.44800907 44.81982422 380.45703125 C39.92995765 383.1326985 35.0273347 385.78476619 30.125 388.4375 C29.12734619 388.97753662 28.12969238 389.51757324 27.10180664 390.07397461 C25.07866828 391.16904692 23.0554748 392.26401742 21.03222656 393.35888672 C16.02074241 396.07122138 11.01042671 398.78571261 6 401.5 C4.00000568 402.58334382 2.00000568 403.66667715 0 404.75 C-1.485 405.554375 -1.485 405.554375 -3 406.375 C-7.5 408.8125 -7.5 408.8125 -12 411.25 C-12.99161133 411.78713623 -13.98322266 412.32427246 -15.00488281 412.87768555 C-16.98856126 413.95215109 -18.97228462 415.02653372 -20.95605469 416.10083008 C-26.20616132 418.94413363 -31.45529393 421.78921712 -36.703125 424.63671875 C-37.79882812 425.23097656 -38.89453125 425.82523437 -40.0234375 426.4375 C-42.12789095 427.57889848 -44.23207075 428.72080171 -46.3359375 429.86328125 C-47.75519531 430.63285156 -47.75519531 430.63285156 -49.203125 431.41796875 C-50.03489258 431.86938232 -50.86666016 432.3207959 -51.72363281 432.78588867 C-52.47483398 433.18654541 -53.22603516 433.58720215 -54 434 C-54.62487305 434.37326416 -55.24974609 434.74652832 -55.89355469 435.13110352 C-61.74354739 437.54419161 -69.24067316 436.91116348 -75.12890625 434.96679688 C-78.17800315 433.52344941 -81.08132726 431.94129567 -84 430.25 C-85.0717749 429.66089844 -86.1435498 429.07179688 -87.24780273 428.46484375 C-89.45048114 427.25118598 -91.6464596 426.02528619 -93.83544922 424.78710938 C-97.65744905 422.62872033 -101.51482263 420.54065987 -105.37646484 418.4543457 C-108.08339698 416.98868539 -110.78281772 415.51000923 -113.48046875 414.02734375 C-119.26630964 410.84952622 -125.06923991 407.70374452 -130.875 404.5625 C-131.87281494 404.02238281 -132.87062988 403.48226563 -133.89868164 402.92578125 C-135.92165442 401.83078511 -137.94468516 400.73589602 -139.96777344 399.64111328 C-144.97925759 396.92877862 -149.98957329 394.21428739 -155 391.5 C-156.99999432 390.41665618 -158.99999432 389.33332285 -161 388.25 C-165 386.08333333 -169 383.91666667 -173 381.75 C-173.99104736 381.2132666 -174.98209473 380.6765332 -176.00317383 380.12353516 C-177.99287881 379.04560944 -179.98230187 377.96716318 -181.97143555 376.88818359 C-187.12669961 374.09266695 -192.28730456 371.30775389 -197.45703125 368.5390625 C-198.52115234 367.96736328 -199.58527344 367.39566406 -200.68164062 366.80664062 C-202.69282744 365.72639618 -204.70571065 364.64930084 -206.72070312 363.57617188 C-228.35450215 351.93649354 -228.35450215 351.93649354 -232 341 C-232.09987198 339.6557105 -232.14816319 338.30716043 -232.16113281 336.95922852 C-232.17074036 336.15151505 -232.1803479 335.34380157 -232.19024658 334.51161194 C-232.19449646 333.64281906 -232.19874634 332.77402618 -232.203125 331.87890625 C-232.20882507 330.98259995 -232.21452515 330.08629364 -232.22039795 329.16282654 C-232.22984164 327.2673358 -232.23637943 325.3718287 -232.24023438 323.47631836 C-232.24995133 320.57702066 -232.28098502 317.67842855 -232.3125 314.77929688 C-232.31902916 312.93750421 -232.32427997 311.09570648 -232.328125 309.25390625 C-232.3404718 308.3871376 -232.3528186 307.52036896 -232.36553955 306.62733459 C-232.35265354 303.14566809 -232.31244763 300.65072206 -230.79199219 297.48413086 C-229 296 -229 296 -224 295 C-224 288.07 -224 281.14 -224 274 C-225.65 273.67 -227.3 273.34 -229 273 C-231.59412516 270.64810701 -231.97488125 269.19170242 -232.43237305 265.70019531 C-232.45855713 264.42241211 -232.48474121 263.14462891 -232.51171875 261.828125 C-232.52966995 261.1457074 -232.54762115 260.46328979 -232.56611633 259.76019287 C-232.62010383 257.5901906 -232.65407583 255.42040675 -232.6875 253.25 C-232.72068352 251.77470926 -232.75517415 250.29944731 -232.79101562 248.82421875 C-232.87582158 245.21635573 -232.94268837 241.60841638 -233 238 C-233.58152832 237.69932617 -234.16305664 237.39865234 -234.76220703 237.08886719 C-245.84463041 231.35142006 -256.90175938 225.56907545 -267.875 219.625 C-268.75816895 219.15030273 -269.64133789 218.67560547 -270.55126953 218.18652344 C-287.64034194 208.8794016 -287.64034194 208.8794016 -291 203 C-292.45451779 196.98799313 -292.21444603 193.4956658 -289 188 C-284.32118325 183.40514465 -279.72641911 181.47131034 -273.55078125 179.44921875 C-272.65634811 179.14554886 -271.76191498 178.84187897 -270.84037781 178.52900696 C-268.96069967 177.89356919 -267.07887436 177.26445131 -265.19506836 176.64135742 C-262.3068188 175.68562006 -259.42557803 174.71078105 -256.54492188 173.73242188 C-254.71391728 173.11607054 -252.88254913 172.50079793 -251.05078125 171.88671875 C-250.18826248 171.59617111 -249.32574371 171.30562347 -248.43708801 171.00627136 C-247.63582993 170.74211929 -246.83457184 170.47796722 -246.0090332 170.20581055 C-244.95363091 169.85536934 -244.95363091 169.85536934 -243.87690735 169.49784851 C-242 169 -242 169 -239 169 C-241.61388084 164.90272684 -244.34696655 161.36820469 -247.6875 157.8125 C-251.05085291 154.17418686 -254.27649216 150.49107991 -257.375 146.625 C-260.76390188 142.42180367 -264.31281504 138.43841251 -268 134.5 C-284.06133703 117.31132736 -284.06133703 117.31132736 -284.3125 109.75 C-284.34988281 109.02296875 -284.38726562 108.2959375 -284.42578125 107.546875 C-283.77452682 103.65129802 -282.62925012 100.90466627 -280 98 C-275.87667494 95.11386631 -271.45714043 92.81968461 -267 90.5 C-265.70260238 89.80699455 -264.40614747 89.1122216 -263.1105957 88.41577148 C-260.42503613 86.97613535 -257.73404591 85.5475535 -255.03759766 84.12841797 C-251.15440775 82.08452951 -247.28425089 80.01706725 -243.41796875 77.94140625 C-242.19890837 77.28716254 -240.97983302 76.63294673 -239.76074219 75.97875977 C-239.16821655 75.66077423 -238.57569092 75.3427887 -237.96520996 75.01516724 C-236.20223288 74.07039529 -234.43754842 73.12881161 -232.67285156 72.18725586 C-224.04351346 67.58159173 -215.4868744 62.86282089 -207 58 C-207.47050781 57.31035156 -207.94101563 56.62070313 -208.42578125 55.91015625 C-215.24873557 45.61215687 -218.31489614 37.52139731 -217 25 C-215.06173255 16.25472184 -210.8091372 8.55159736 -203.53515625 3.1796875 C-193.34122244 -3.16661114 -182.86074339 -4.76977314 -171.0859375 -2.41796875 C-162.29271746 0.63872203 -154.36813742 7.80974233 -150 16 C-148.51830597 19.70423507 -148 21.96899419 -148 26 C-147.44014404 25.70230713 -146.88028809 25.40461426 -146.3034668 25.09790039 C-143.76606481 23.75039074 -141.22681049 22.40640945 -138.6875 21.0625 C-137.36588867 20.35963867 -137.36588867 20.35963867 -136.01757812 19.64257812 C-135.17001953 19.19462891 -134.32246094 18.74667969 -133.44921875 18.28515625 C-132.66893311 17.87144775 -131.88864746 17.45773926 -131.0847168 17.03149414 C-126.90452718 14.9631839 -123.63361497 14.61386542 -119 15 C-108.75983858 19.05742245 -102.11566115 29.80531073 -95.4140625 38.1171875 C-92.70957865 41.34681384 -89.87839845 44.42608769 -87 47.5 C-82.45166678 52.3588389 -78.15230489 57.35287024 -73.98046875 62.54296875 C-71.38939188 65.75753947 -68.70389506 68.88012108 -66 72 C-62.26676074 70.75558691 -61.40139836 69.27312032 -59 66.1875 C-55.06878502 61.24927428 -50.94780179 56.57670397 -46.63085938 51.97338867 C-44.52972734 49.72168567 -42.71466403 47.57199605 -41 45 C-41.29407351 42.25531388 -42.39031072 40.10553794 -43.5 37.5625 C-46.81397638 29.6918061 -46.65304217 22.57275334 -44.046875 14.49609375 C-40.75463725 6.64631792 -35.04727643 1.23519813 -27.375 -2.25 C-17.7696434 -5.8359998 -9.08961934 -4.41370939 0 0 Z " fill="#010202" transform="translate(321,76)"/>

<!-- left front (transparent) -->
<path d="M0 0 C4.07429569 1.53102861 7.88395295 3.44186596 11.71484375 5.4921875 C12.35861465 5.83424225 13.00238556 6.176297 13.66566467 6.52871704 C15.75774278 7.6414161 17.84770824 8.75801357 19.9375 9.875 C21.38732984 10.64786141 22.83719993 11.42064732 24.28710938 12.19335938 C39.67318032 20.40124116 55.04079165 28.64919038 70.16992188 37.32421875 C77.13702819 41.29253821 83.06817566 42.18718124 90.91891479 40.29736328 C94.13076204 39.291975 97.29675598 38.19823752 100.46484375 37.0625 C101.61996964 36.66297119 102.77509552 36.26344238 103.96522522 35.85180664 C107.62786428 34.58229133 111.28280531 33.29218788 114.9375 32 C118.61839418 30.71162699 122.30074257 29.42761794 125.98475647 28.14819336 C128.27059098 27.35297058 130.55439384 26.55187895 132.83592224 25.74438477 C133.86451859 25.38401123 134.89311493 25.0236377 135.95288086 24.65234375 C136.85759628 24.33257568 137.76231171 24.01280762 138.69444275 23.68334961 C141 23 141 23 144 23 C144 71.84 144 120.68 144 171 C140.58601286 169.63440514 137.48637154 168.28752651 134.25390625 166.6015625 C133.34600342 166.1286377 132.43810059 165.65571289 131.50268555 165.16845703 C130.53242432 164.65911621 129.56216309 164.14977539 128.5625 163.625 C127.54260986 163.09116699 126.52271973 162.55733398 125.47192383 162.00732422 C116.84080569 157.47387483 108.27862816 152.82024395 99.73046875 148.1328125 C93.50494675 144.72171591 87.25326408 141.35989419 81 138 C72.0946095 133.21308307 63.20725214 128.39498224 54.33691406 123.54345703 C48.27725788 120.23270319 42.20208175 116.95188288 36.11889648 113.68457031 C27.21079491 108.89966931 18.30312861 104.11325486 9.4375 99.25 C8.68758789 98.84378418 7.93767578 98.43756836 7.16503906 98.01904297 C2.1157084 95.23141679 2.1157084 95.23141679 1 93 C0.89141168 90.20436483 0.83862479 87.42918635 0.82421875 84.6328125 C0.80102146 82.92576891 0.77690416 81.21873761 0.75195312 79.51171875 C0.71682351 76.81681072 0.68748684 74.12235534 0.67407227 71.42724609 C0.65860096 68.82854258 0.61839946 66.23116572 0.57421875 63.6328125 C0.57612717 62.82852814 0.57803558 62.02424377 0.58000183 61.19558716 C0.50147612 57.60508002 0.32976462 55.44192205 -1.84838867 52.52294922 C-4.01338972 50.83443825 -4.01338972 50.83443825 -7 50 C-7.1743959 46.41728224 -7.28087658 42.83565398 -7.375 39.25 C-7.45041016 37.72632813 -7.45041016 37.72632813 -7.52734375 36.171875 C-7.58340803 33.33128489 -7.58356673 30.78280779 -7 28 C-6.0203125 27.360625 -5.040625 26.72125 -4.03125 26.0625 C-0.77916409 24.35123012 -0.77916409 24.35123012 -0.41259766 21.46386719 C-0.18519694 18.21484755 -0.11744339 15.00689769 -0.125 11.75 C-0.104375 10.62335938 -0.08375 9.49671875 -0.0625 8.3359375 C-0.01539181 5.55655446 0.00444042 2.77970081 0 0 Z " fill="#262626"   transform="translate(104,322)"/>

<path d="M0 0 C0.06943354 11.94346072 0.12277746 23.88687363 0.15543652 35.83049488 C0.17110923 41.37608265 0.19237688 46.92153258 0.22631836 52.46704102 C0.25885442 57.81624905 0.27684091 63.16532431 0.28463173 68.51462364 C0.29018558 70.55803201 0.30103057 72.60143291 0.31719017 74.64478493 C0.33888791 77.50138828 0.34197013 80.35743916 0.34057617 83.21411133 C0.351362 84.06359344 0.36214783 84.91307556 0.3732605 85.78829956 C0.34252468 91.58836225 0.34252468 91.58836225 -1.37391186 93.65113354 C-3.5077721 95.42120519 -5.75660051 96.63573465 -8.20703125 97.93359375 C-9.25713379 98.49377197 -10.30723633 99.0539502 -11.38916016 99.63110352 C-12.5188623 100.22721436 -13.64856445 100.8233252 -14.8125 101.4375 C-15.99301874 102.06568078 -17.17319051 102.69451401 -18.35302734 103.32397461 C-20.15636996 104.28607336 -21.95987113 105.24785369 -23.7644043 106.2077179 C-29.23929758 109.1206049 -34.6854517 112.08428351 -40.125 115.0625 C-50.72430105 120.85566754 -61.34435794 126.61008569 -71.96777344 132.35888672 C-77.97496419 135.61012152 -83.98073099 138.86398667 -89.98632812 142.11816406 C-95.0596096 144.86688188 -100.13411994 147.6132868 -105.2109375 150.35546875 C-107.26571293 151.46598316 -109.3204014 152.57665848 -111.375 153.6875 C-112.3652417 154.2227832 -113.3554834 154.75806641 -114.37573242 155.30957031 C-121.47040098 159.1522949 -128.53264823 163.05035552 -135.55810547 167.01831055 C-138.34869055 168.5846582 -140.95590233 169.98530078 -144 171 C-144 121.83 -144 72.66 -144 22 C-133.88181556 24.24848543 -133.88181556 24.24848543 -129.80664062 25.69580078 C-128.89539429 26.01598175 -127.98414795 26.33616272 -127.04528809 26.66604614 C-126.09190552 27.00570404 -125.13852295 27.34536194 -124.15625 27.6953125 C-122.08481624 28.4184869 -120.0131959 29.14112705 -117.94140625 29.86328125 C-114.71381445 30.99419167 -111.48789198 32.1293004 -108.26513672 33.27392578 C-105.1289075 34.38524075 -101.98695903 35.47892222 -98.84375 36.5703125 C-97.89036743 36.91401886 -96.93698486 37.25772522 -95.95471191 37.61184692 C-85.76262883 41.12248586 -78.6432018 40.67988604 -69 36 C-63.87068937 33.41639044 -58.80610926 30.72340684 -53.75 28 C-52.32530619 27.23743367 -50.90041804 26.47523032 -49.4753418 25.71337891 C-37.22783431 19.15727274 -25.02506914 12.51800983 -12.85498047 5.81933594 C-10.98854172 4.79272679 -9.11959751 3.77084107 -7.25 2.75 C-6.26515625 2.20859375 -5.2803125 1.6671875 -4.265625 1.109375 C-2 0 -2 0 0 0 Z " fill="#262626" transform="translate(407,323)"/>

<path d="M0 0 C1.37482452 1.52952876 2.67665897 3.12522906 3.9375 4.75 C7.4643033 9.1771417 11.12488308 13.37584748 15 17.5 C19.45207006 22.25209174 23.62670048 27.14540481 27.69921875 32.23046875 C31.1678279 36.40575548 34.8875737 40.3313101 38.6171875 44.2734375 C40.77843136 46.74646736 42.42380552 49.12944714 44 52 C33.48108331 57.91341216 22.89403601 63.68981811 12.25 69.375 C3.77261012 73.90300967 -4.69375784 78.44887081 -13.125 83.0625 C-21.02523639 87.38501012 -28.94373707 91.67217801 -36.875 95.9375 C-49.26341493 102.60036924 -61.63779742 109.28862475 -74 116 C-75.03398926 116.56090332 -76.06797852 117.12180664 -77.13330078 117.69970703 C-80.1939351 119.36065235 -83.2534058 121.02372013 -86.3125 122.6875 C-87.24416992 123.19297363 -88.17583984 123.69844727 -89.13574219 124.21923828 C-89.99458008 124.68700684 -90.85341797 125.15477539 -91.73828125 125.63671875 C-92.86810425 126.25099731 -92.86810425 126.25099731 -94.02075195 126.87768555 C-95.72491673 127.84401655 -97.36995142 128.91330095 -99 130 C-102.01935945 129.8879413 -103.04028614 128.96228827 -105.26171875 126.8828125 C-106.06222656 125.97273438 -106.86273438 125.06265625 -107.6875 124.125 C-108.12465332 123.63177246 -108.56180664 123.13854492 -109.01220703 122.63037109 C-112.66020069 118.48138806 -116.11872709 114.18313354 -119.5859375 109.8828125 C-122.77142542 106.07878324 -126.14863844 102.47547027 -129.54052734 98.85620117 C-133.59354579 94.5060654 -137.36423403 89.99769768 -141.0625 85.33984375 C-142.96993867 82.95012858 -142.96993867 82.95012858 -145.25 80.81640625 C-147 79 -147 79 -147 77 C-146.27748047 76.61368408 -145.55496094 76.22736816 -144.81054688 75.8293457 C-128.18034438 66.93512891 -111.57012588 58.00580393 -95 49 C-93.9795459 48.44586426 -92.9590918 47.89172852 -91.90771484 47.32080078 C-88.87522131 45.6735849 -85.84367764 44.02463591 -82.8125 42.375 C-81.43989014 41.62923706 -81.43989014 41.62923706 -80.03955078 40.8684082 C-79.18731934 40.40394287 -78.33508789 39.93947754 -77.45703125 39.4609375 C-76.6669165 39.03216309 -75.87680176 38.60338867 -75.06274414 38.16162109 C-72.85507323 36.95357344 -72.85507323 36.95357344 -70.296875 35.1875 C-67.2587299 33.61675831 -64.84267193 33.66373916 -61.4375 33.625 C-52.1281999 33.12733301 -43.47490857 30.32856121 -36.59912109 23.80151367 C-34.90858391 21.89701385 -33.85576185 19.99974356 -32.62890625 17.7734375 C-28.4880754 11.4660419 -22.38945751 8.71213022 -15.8125 5.375 C-14.61164756 4.73491304 -13.41176825 4.09299693 -12.21289062 3.44921875 C-3.43076562 -1.14358854 -3.43076562 -1.14358854 0 0 Z " fill="#262626" transform="translate(200,108)"/>

<path d="M0 0 C3.84435238 0.58639028 6.63637362 1.71314194 9.9921875 3.66015625 C10.93779541 4.20325439 11.88340332 4.74635254 12.85766602 5.3059082 C13.85338623 5.8855835 14.84910645 6.46525879 15.875 7.0625 C17.94343902 8.24579106 20.01245041 9.42808214 22.08203125 10.609375 C23.09088379 11.18751953 24.09973633 11.76566406 25.13916016 12.36132812 C28.93447137 14.53525959 32.73259905 16.7000501 36.5625 18.8125 C37.67753906 19.43769531 38.79257812 20.06289062 39.94140625 20.70703125 C43.25790301 22.10902413 45.437672 22.39354269 49 22 C49.99 21.195625 49.99 21.195625 51 20.375 C51.66 19.92125 52.32 19.4675 53 19 C57.54686309 20.1513516 61.30250584 22.17048605 65.3125 24.5625 C66.36050781 25.18253906 67.40851563 25.80257812 68.48828125 26.44140625 C71 28 71 28 72 29 C72 30.216875 72 31.43375 72 32.6875 C72.32760034 35.35990495 72.57383157 36.60052967 74.55883789 38.46118164 C81.02867366 42.53762168 87.70750176 46.17304917 94.47625732 49.72167969 C97.80318363 51.46605632 101.12191757 53.22589809 104.44140625 54.984375 C105.09314819 55.32915894 105.74489014 55.67394287 106.41638184 56.0291748 C114.34553803 60.23050022 122.18321481 64.59379046 130 69 C128.43767979 72.67956291 126.16415918 75.16515793 123.4375 78.0625 C120.02391359 81.73250604 116.76044817 85.45998885 113.625 89.375 C109.76404682 94.16367338 105.66438303 98.65675107 101.46166992 103.14160156 C97.37749171 107.52551792 93.57451996 112.07034181 89.83984375 116.7578125 C88.3062094 118.62682761 86.74764949 120.33401638 85 122 C80.45153563 120.61720137 76.44632137 118.7848744 72.2578125 116.54296875 C71.6211969 116.20378418 70.9845813 115.86459961 70.32867432 115.51513672 C68.25830577 114.41048857 66.19161585 113.29915061 64.125 112.1875 C62.68067855 111.41478905 61.23617798 110.64241281 59.79150391 109.87036133 C55.52382909 107.5873583 51.26118539 105.29508794 47 103 C45.84822266 102.37996094 44.69644531 101.75992188 43.50976562 101.12109375 C32.12464224 94.98472891 20.77325408 88.78669084 9.42285156 82.58642578 C2.33714979 78.71977274 -4.76617146 74.88644332 -11.875 71.0625 C-16.25 68.70833333 -20.625 66.35416667 -25 64 C-26.08796875 63.41476563 -27.1759375 62.82953125 -28.296875 62.2265625 C-51.38153846 49.80060729 -51.38153846 49.80060729 -61 44 C-57.12394727 38.55832597 -52.88996072 33.59527485 -48.3828125 28.66796875 C-45.07540614 24.96475802 -41.96151918 21.11624251 -38.84765625 17.25 C-37 15 -37 15 -35 13 C-33.17163086 12.85229492 -33.17163086 12.85229492 -30.96484375 12.98046875 C-30.15934082 13.01309814 -29.35383789 13.04572754 -28.52392578 13.0793457 C-27.67040527 13.11503662 -26.81688477 13.15072754 -25.9375 13.1875 C-16.36909636 13.39007672 -11.23511193 11.78456811 -4.0625 5.375 C-1.89678824 2.98249189 -1.89678824 2.98249189 0 0 Z " fill="#262626" transform="translate(329,116)"/>
<path d="M0 0 C7.26 0 14.52 0 22 0 C22.99 3.465 22.99 3.465 24 7 C26.23755648 8.88793828 28.44226107 9.78958947 31.1640625 10.81640625 C48.47609521 17.38398691 59.97603694 28.54701805 68 45 C72.6351181 55.76699309 72.61067858 67.47378419 72 79 C71.96003906 80.10472656 71.92007813 81.20945312 71.87890625 82.34765625 C71.11656993 86.83303039 69.78138528 89.6653133 66.0703125 92.44580078 C60.6956944 95.83773674 55.00712744 98.59850086 49.29541016 101.37011719 C43.46573563 104.25342636 37.77605882 107.39478737 32.0625 110.5 C28.92255838 112.18575992 25.78212474 113.87041549 22.63720703 115.546875 C20.40092014 116.77908936 18.27063548 118.09492525 16.12109375 119.46875 C13 121 13 121 10.234375 121.10546875 C5.25981034 119.40522503 0.82555868 116.88002891 -3.75 114.3125 C-5.88495033 113.13196876 -8.02038524 111.95231353 -10.15625 110.7734375 C-11.26871094 110.15694336 -12.38117188 109.54044922 -13.52734375 108.90527344 C-17.07472434 106.95900248 -20.64140013 105.05438247 -24.21875 103.1640625 C-25.40532201 102.53484093 -26.59184596 101.90552873 -27.77832031 101.27612305 C-30.05637693 100.06965017 -32.33690401 98.86782813 -34.62011719 97.67114258 C-36.17714355 96.84199341 -36.17714355 96.84199341 -37.765625 95.99609375 C-39.13895996 95.27184204 -39.13895996 95.27184204 -40.54003906 94.53295898 C-46.0068484 91.12624046 -47.8083193 87.78310248 -49.44189453 81.72900391 C-50.33454079 77.36417456 -50.48955732 73.13220332 -50.4375 68.6875 C-50.42992676 67.77178223 -50.42235352 66.85606445 -50.41455078 65.91259766 C-49.97973725 47.92020427 -41.67543117 34.67543117 -29.25390625 22.25390625 C-22.3795493 15.90707789 -13.74236734 12.02172551 -4.99609375 8.95703125 C-2.6627894 8.047182 -2.6627894 8.047182 -1 5 C-0.67 3.35 -0.34 1.7 0 0 Z " fill="#F3E667" transform="translate(245,204)"/>

<path d="M0 0 C0.98887207 0.54043945 1.97774414 1.08087891 2.99658203 1.63769531 C4.6773584 2.54769287 4.6773584 2.54769287 6.39208984 3.47607422 C7.59627128 4.13917789 8.80037081 4.80243032 10.00439453 5.46582031 C11.26013493 6.14941742 12.5163265 6.83218634 13.77294922 7.51416016 C16.33337786 8.90532965 18.89118161 10.30114454 21.44677734 11.70117188 C25.77229524 14.06998154 30.11109178 16.41400097 34.45019531 18.7578125 C38.36736294 20.87474156 42.28049923 22.99906852 46.19384766 25.12304688 C51.17083127 27.82346613 56.15024937 30.51938938 61.12939453 33.21582031 C63.12940589 34.29913268 65.1294059 35.382466 67.12939453 36.46582031 C68.11939453 37.00207031 69.10939453 37.53832031 70.12939453 38.09082031 C73.12939453 39.71582031 76.12939453 41.34082031 79.12939453 42.96582031 C80.1202002 43.50247314 81.11100586 44.03912598 82.13183594 44.59204102 C84.12381163 45.67109545 86.11567436 46.75035843 88.10742188 47.82983398 C93.22926858 50.6053903 98.35326624 53.37685491 103.48095703 56.14160156 C114.10515349 61.87450066 124.69822262 67.63709161 135.12939453 73.71582031 C135.12939453 74.37582031 135.12939453 75.03582031 135.12939453 75.71582031 C134.4569873 76.07708008 133.78458008 76.43833984 133.09179688 76.81054688 C121.21647043 83.19270331 109.34363252 89.57939039 97.50439453 96.02832031 C96.61316895 96.51365234 95.72194336 96.99898438 94.80371094 97.49902344 C90.6105905 99.78942904 86.4317187 102.10101695 82.27783203 104.46191406 C81.15755615 105.09842896 81.15755615 105.09842896 80.01464844 105.74780273 C78.63168474 106.53668975 77.25098993 107.32957313 75.87304688 108.12719727 C71.34614151 110.71582031 71.34614151 110.71582031 69.12939453 110.71582031 C69.12004883 110.13316406 69.11070312 109.55050781 69.10107422 108.95019531 C68.61719455 84.81313887 64.31678478 63.73287862 46.68017578 46.16113281 C45.83841797 45.35417969 44.99666016 44.54722656 44.12939453 43.71582031 C43.52482422 43.11511719 42.92025391 42.51441406 42.29736328 41.89550781 C34.25848494 34.4238496 22.68321382 27.83490465 11.75439453 26.21582031 C8.98646973 26.47252186 8.98646973 26.47252186 7.29321289 28.71386719 C4.63734352 31.17106326 3.44632473 31.22942066 -0.11669922 31.24707031 C-1.11894531 31.25222656 -2.12119141 31.25738281 -3.15380859 31.26269531 C-4.19472656 31.24722656 -5.23564453 31.23175781 -6.30810547 31.21582031 C-7.34515625 31.23128906 -8.38220703 31.24675781 -9.45068359 31.26269531 C-15.32677384 31.23250346 -18.51902581 30.99993362 -22.87060547 26.71582031 C-33.99606921 25.98628171 -46.54149698 33.84391713 -54.79638672 40.82519531 C-55.48087891 41.44910156 -56.16537109 42.07300781 -56.87060547 42.71582031 C-57.68916016 43.44285156 -58.50771484 44.16988281 -59.35107422 44.91894531 C-75.24833137 59.83013962 -81.81287487 79.03393616 -82.49560547 100.34082031 C-82.53427734 101.345 -82.57294922 102.34917969 -82.61279297 103.38378906 C-82.70589168 105.82763036 -82.7917146 108.27148627 -82.87060547 110.71582031 C-86.94490053 109.18479194 -90.75456143 107.27395858 -94.58544922 105.22363281 C-95.55171738 104.7102108 -95.55171738 104.7102108 -96.5375061 104.18641663 C-98.62915825 103.07392073 -100.71870838 101.95754492 -102.80810547 100.84082031 C-104.25133858 100.07161175 -105.69461688 99.30248795 -107.13793945 98.53344727 C-135.71839016 83.28937786 -135.71839016 83.28937786 -148.87060547 75.71582031 C-147.64358852 72.03476947 -146.88202122 71.90930127 -143.51513672 70.21972656 C-142.59434326 69.75002441 -141.6735498 69.28032227 -140.72485352 68.79638672 C-139.72107666 68.2954248 -138.7172998 67.79446289 -137.68310547 67.27832031 C-135.55979101 66.19548433 -133.43741633 65.11080384 -131.31591797 64.02441406 C-129.69411621 63.19659424 -129.69411621 63.19659424 -128.03955078 62.35205078 C-123.33707826 59.92400989 -118.69527733 57.39081612 -114.05810547 54.84082031 C-106.01522366 50.42875422 -97.95157996 46.0577478 -89.87060547 41.71582031 C-80.96377181 36.92812764 -72.07518763 32.10886245 -63.203125 27.25708008 C-54.97248385 22.76066995 -46.7169919 18.31078309 -38.44580078 13.8894043 C-33.2533801 11.10741653 -28.09157811 8.29052998 -22.98779297 5.34863281 C-22.07787598 4.82922119 -21.16795898 4.30980957 -20.23046875 3.7746582 C-18.54106096 2.80605387 -16.85912118 1.82425571 -15.18652344 0.8269043 C-14.06334717 0.18603882 -14.06334717 0.18603882 -12.91748047 -0.46777344 C-11.95600098 -1.03322876 -11.95600098 -1.03322876 -10.97509766 -1.61010742 C-6.99244666 -2.885757 -3.70454953 -1.65724873 0 0 Z " fill="#121212" transform="translate(262.87060546875,173.2841796875)"/>

<path d="M0 0 C0.87672867 0.29255173 1.75345734 0.58510345 2.65675354 0.88652039 C3.53484177 1.19354385 4.41292999 1.50056732 5.31762695 1.81689453 C6.88888047 2.32981383 8.46064438 2.84117274 10.03295898 3.35083008 C11.63096676 3.88355091 13.22844762 4.41785456 14.82543945 4.95361328 C15.67693573 5.23791702 16.52843201 5.52222076 17.4057312 5.81513977 C20.0851758 6.71013139 22.76391161 7.60722292 25.44262695 8.50439453 C27.2759135 9.11716473 29.10924644 9.72979614 30.94262695 10.34228516 C35.40149725 11.83222069 39.85973384 13.32403793 44.31762695 14.81689453 C44.31762695 15.80689453 44.31762695 16.79689453 44.31762695 17.81689453 C43.73609863 18.11756836 43.15457031 18.41824219 42.55541992 18.72802734 C28.99208857 25.74985766 15.52788088 32.92842653 2.13745117 40.27392578 C-2.7524154 42.94959303 -7.65503834 45.60166072 -12.55737305 48.25439453 C-13.55502686 48.79443115 -14.55268066 49.33446777 -15.58056641 49.89086914 C-17.60370477 50.98594146 -19.62689825 52.08091195 -21.65014648 53.17578125 C-27.65877684 56.4277952 -33.6659046 59.68258424 -39.6730957 62.93725586 C-44.72200768 65.67252925 -49.77171813 68.40630871 -54.82299805 71.13720703 C-55.83507324 71.68481689 -56.84714844 72.23242676 -57.88989258 72.79663086 C-59.90048545 73.88388695 -61.91186556 74.96968865 -63.92407227 76.05395508 C-68.7868482 78.67988624 -73.62465858 81.33922536 -78.42456055 84.07861328 C-79.33302734 84.59278809 -80.24149414 85.10696289 -81.17749023 85.63671875 C-82.879622 86.60281916 -84.57604209 87.57908272 -86.26538086 88.56738281 C-87.02431641 88.99647949 -87.78325195 89.42557617 -88.56518555 89.86767578 C-89.21890137 90.24577393 -89.87261719 90.62387207 -90.54614258 91.01342773 C-96.66058385 93.31315645 -102.23823154 90.87920247 -108.0612793 88.82470703 C-108.95096909 88.51870575 -109.84065887 88.21270447 -110.75730896 87.89743042 C-113.58954997 86.92083201 -116.41712772 85.93142483 -119.24487305 84.94189453 C-121.15019017 84.28352626 -123.05578655 83.62596554 -124.96166992 82.96923828 C-139.79460536 77.84203085 -139.79460536 77.84203085 -144.68237305 75.81689453 C-141.02014979 72.70179135 -137.21877061 70.33208216 -132.9675293 68.12939453 C-132.00255272 67.62089714 -132.00255272 67.62089714 -131.01808167 67.10212708 C-129.64275214 66.37802349 -128.26618472 65.656267 -126.88848877 64.93667603 C-123.25041956 63.03622226 -119.62148031 61.11844888 -115.9909668 59.20361328 C-115.26989746 58.8239592 -114.54882812 58.44430511 -113.8059082 58.05314636 C-107.94410994 54.96431941 -102.11616067 51.81685644 -96.30737305 48.62939453 C-88.45128286 44.32290727 -80.57398003 40.05797007 -72.68237305 35.81689453 C-63.73776645 31.00834758 -54.80934791 26.17171217 -45.8984375 21.30102539 C-37.90680331 16.93405604 -29.89931822 12.59664511 -21.88696289 8.26782227 C-20.94675293 7.75936768 -20.00654297 7.25091309 -19.0378418 6.72705078 C-17.67344971 6.00412842 -17.67344971 6.00412842 -16.28149414 5.26660156 C-13.67981744 3.86552081 -13.67981744 3.86552081 -11.3371582 2.22265625 C-7.16992561 -0.52963428 -4.85597977 -1.67332454 0 0 Z " fill="#262626" transform="translate(419.682373046875,257.18310546875)"/>

<path d="M0 0 C0.93956543 0.51296631 1.87913086 1.02593262 2.84716797 1.55444336 C4.34981201 2.38407593 4.34981201 2.38407593 5.8828125 3.23046875 C8.04941617 4.41547977 10.21608461 5.60037237 12.3828125 6.78515625 C14.03796875 7.69346191 14.03796875 7.69346191 15.7265625 8.62011719 C20.76904979 11.38298001 25.82581858 14.11927683 30.8828125 16.85546875 C31.86475586 17.3875293 32.84669922 17.91958984 33.85839844 18.46777344 C41.27578803 22.48582707 48.70326034 26.48495978 56.1328125 30.48046875 C64.99331632 35.24591927 73.83640456 40.04168534 82.66259766 44.87036133 C89.92499646 48.83916271 97.21509019 52.75523296 104.5078125 56.66796875 C113.42058079 61.45269056 122.27758694 66.30681852 131.0078125 71.41796875 C127.55051183 73.72283587 124.03395302 74.8610442 120.12109375 76.1328125 C119.34525436 76.38922012 118.56941498 76.64562775 117.77006531 76.9098053 C115.28819801 77.72929874 112.80438527 78.54268765 110.3203125 79.35546875 C107.85443507 80.16567527 105.38900239 80.97719774 102.92411804 81.79042053 C101.39206508 82.29552454 99.85939702 82.79876822 98.32600403 83.29978943 C94.737457 84.47954146 91.19709741 85.7199925 87.67675781 87.09106445 C82.47891736 88.97090627 79.41613358 88.52817806 74.41064453 86.22070312 C71.25822016 84.60062701 68.16339709 82.89861232 65.0703125 81.16796875 C63.32640289 80.21002235 61.58248797 79.25208538 59.83816528 78.29489136 C58.05244096 77.31302318 56.26939178 76.32643892 54.48681641 75.33886719 C49.26300818 72.45459188 44.00944372 69.62614805 38.7578125 66.79296875 C30.30688855 62.21690754 21.8701663 57.61512945 13.43652344 53.00732422 C6.30811411 49.11713299 -0.83958492 45.26346532 -7.9921875 41.41796875 C-25.07453892 32.23084297 -42.12148793 22.9893112 -58.9921875 13.41796875 C-58.9921875 12.75796875 -58.9921875 12.09796875 -58.9921875 11.41796875 C-51.609375 8.95703125 -44.2265625 6.49609375 -36.84375 4.03515625 C-36.04698853 3.76924683 -35.25022705 3.5033374 -34.42932129 3.22937012 C-32.83952423 2.70008729 -31.24894821 2.17313832 -29.65759277 1.64855957 C-26.19881718 0.50580992 -22.76841864 -0.66526894 -19.35351562 -1.93554688 C-18.31130859 -2.31904297 -17.26910156 -2.70253906 -16.1953125 -3.09765625 C-15.32036133 -3.43571289 -14.44541016 -3.77376953 -13.54394531 -4.12207031 C-8.54189153 -5.02370343 -4.28715265 -2.3563779 0 0 Z " fill="#262626" transform="translate(105.9921875,260.58203125)"/>

<path d="M0 0 C4.07198863 1.62879545 7.86364314 3.430996 11.71484375 5.4921875 C12.35861465 5.83424225 13.00238556 6.176297 13.66566467 6.52871704 C15.75774278 7.6414161 17.84770824 8.75801357 19.9375 9.875 C21.38732984 10.64786141 22.83719993 11.42064732 24.28710938 12.19335938 C39.67318032 20.40124116 55.04079165 28.64919038 70.16992188 37.32421875 C77.13702819 41.29253821 83.06817566 42.18718124 90.91891479 40.29736328 C94.13076204 39.291975 97.29675598 38.19823752 100.46484375 37.0625 C101.61996964 36.66297119 102.77509552 36.26344238 103.96522522 35.85180664 C107.62786428 34.58229133 111.28280531 33.29218788 114.9375 32 C118.61839418 30.71162699 122.30074257 29.42761794 125.98475647 28.14819336 C128.27059098 27.35297058 130.55439384 26.55187895 132.83592224 25.74438477 C133.86451859 25.38401123 134.89311493 25.0236377 135.95288086 24.65234375 C136.85759628 24.33257568 137.76231171 24.01280762 138.69444275 23.68334961 C141 23 141 23 144 23 C144 71.84 144 120.68 144 171 C137.07954335 168.23181734 130.57667052 164.50755761 124 161 C124 123.05 124 85.1 124 46 C112.12 49.96 100.24 53.92 88 58 C76.75283447 58 76.75283447 58 72.6171875 55.61328125 C71.69035156 55.09378906 70.76351562 54.57429688 69.80859375 54.0390625 C68.84050781 53.46929687 67.87242187 52.89953125 66.875 52.3125 C64.74771102 51.11011927 62.62009768 49.90831227 60.4921875 48.70703125 C58.87521973 47.78011475 58.87521973 47.78011475 57.22558594 46.83447266 C52.19494011 43.97341659 47.09697692 41.2405223 42 38.5 C40.02438971 37.43033345 38.0491311 36.36001711 36.07421875 35.2890625 C31.82849069 32.98909096 27.58078013 30.6928236 23.33203125 28.3984375 C22.24083984 27.80869141 21.14964844 27.21894531 20.02539062 26.61132812 C17.93474749 25.4814912 15.84362649 24.3525379 13.75195312 23.22460938 C12.80900391 22.71478516 11.86605469 22.20496094 10.89453125 21.6796875 C10.06800049 21.23351074 9.24146973 20.78733398 8.38989258 20.32763672 C5.89147899 18.93971425 3.44267487 17.48348942 1 16 C1 17.98 1 19.96 1 22 C0.67 22 0.34 22 0 22 C0 14.74 0 7.48 0 0 Z " fill="#181818" transform="translate(104,322)"/>

<path d="M0 0 C0.06943354 11.94346072 0.12277746 23.88687363 0.15543652 35.83049488 C0.17110923 41.37608265 0.19237688 46.92153258 0.22631836 52.46704102 C0.25885442 57.81624905 0.27684091 63.16532431 0.28463173 68.51462364 C0.29018558 70.55803201 0.30103057 72.60143291 0.31719017 74.64478493 C0.33888791 77.50138828 0.34197013 80.35743916 0.34057617 83.21411133 C0.351362 84.06359344 0.36214783 84.91307556 0.3732605 85.78829956 C0.34248802 91.59527959 0.34248802 91.59527959 -1.41144848 93.66791821 C-3.10642786 95.08924521 -4.79533201 96.17673705 -6.72265625 97.26171875 C-7.42583984 97.65810547 -8.12902344 98.05449219 -8.85351562 98.46289062 C-9.58248047 98.86701172 -10.31144531 99.27113281 -11.0625 99.6875 C-11.79533203 100.10322266 -12.52816406 100.51894531 -13.28320312 100.94726562 C-18.74203356 104 -18.74203356 104 -21 104 C-21.33 78.59 -21.66 53.18 -22 27 C-44.83560615 39.22901934 -44.83560615 39.22901934 -67.5859375 51.609375 C-68.3603418 52.02509766 -69.13474609 52.44082031 -69.93261719 52.86914062 C-71.64276237 53.80459085 -73.31555081 54.80797609 -74.9765625 55.828125 C-83.67433982 59.19935652 -92.12673491 56.06701566 -100.5 53.09765625 C-101.65749756 52.70049911 -102.81499512 52.30334198 -104.00756836 51.89414978 C-107.67682932 50.63120669 -111.33826221 49.34707095 -115 48.0625 C-117.49041155 47.20240273 -119.98129295 46.34366464 -122.47265625 45.48632812 C-127.00676542 43.92095441 -131.53933724 42.35150006 -136.06640625 40.76586914 C-136.97334229 40.44832169 -137.88027832 40.13077423 -138.81469727 39.80360413 C-141 39 -141 39 -143 38 C-142.67 81.89 -142.34 125.78 -142 171 C-142.66 171 -143.32 171 -144 171 C-144 121.83 -144 72.66 -144 22 C-133.88181556 24.24848543 -133.88181556 24.24848543 -129.80664062 25.69580078 C-128.89539429 26.01598175 -127.98414795 26.33616272 -127.04528809 26.66604614 C-126.09190552 27.00570404 -125.13852295 27.34536194 -124.15625 27.6953125 C-122.08481624 28.4184869 -120.0131959 29.14112705 -117.94140625 29.86328125 C-114.71381445 30.99419167 -111.48789198 32.1293004 -108.26513672 33.27392578 C-105.1289075 34.38524075 -101.98695903 35.47892222 -98.84375 36.5703125 C-97.89036743 36.91401886 -96.93698486 37.25772522 -95.95471191 37.61184692 C-85.76262883 41.12248586 -78.6432018 40.67988604 -69 36 C-63.87068937 33.41639044 -58.80610926 30.72340684 -53.75 28 C-52.32530619 27.23743367 -50.90041804 26.47523032 -49.4753418 25.71337891 C-37.22783431 19.15727274 -25.02506914 12.51800983 -12.85498047 5.81933594 C-10.98854172 4.79272679 -9.11959751 3.77084107 -7.25 2.75 C-6.26515625 2.20859375 -5.2803125 1.6671875 -4.265625 1.109375 C-2 0 -2 0 0 0 Z " fill="#181818" transform="translate(407,323)"/>
<path d="M0 0 C8.75398308 5.14940181 14.69654103 11.43475943 17.375 21.4375 C18.58878013 30.47293186 18.42022262 39.58753192 13.375 47.4375 C12.8490625 48.36755859 12.8490625 48.36755859 12.3125 49.31640625 C7.69324992 56.74249232 0.14247989 60.81722743 -8.15625 62.96875 C-17.59713545 64.76132319 -26.21424612 62.77516221 -34.375 57.75 C-42.18339364 52.13126172 -46.32915143 44.71169055 -48.625 35.4375 C-49.94187429 25.68671173 -47.15364643 16.50413114 -41.49609375 8.546875 C-31.18665893 -3.07545236 -14.07751331 -6.66548926 0 0 Z " fill="#000101" transform="translate(363.625,2.5625)"/>
<path d="M0 0 C7.26 0 14.52 0 22 0 C22.66 2.31 23.32 4.62 24 7 C26.23755648 8.88793828 28.44226107 9.78958947 31.1640625 10.81640625 C48.47609521 17.38398691 59.97603694 28.54701805 68 45 C72.6351181 55.76699309 72.61067858 67.47378419 72 79 C71.96003906 80.10472656 71.92007813 81.20945312 71.87890625 82.34765625 C71.06858323 87.11537073 69.67264477 89.79311487 65.68359375 92.67138672 C49.11119535 103 49.11119535 103 44 103 C44.91989753 100.16364927 45.86250007 97.34994859 46.953125 94.57421875 C51.00138293 84.13635967 52.39567479 74.16682192 52 63 C51.54625 63.804375 51.0925 64.60875 50.625 65.4375 C49 68 49 68 47 69 C43.625 69.375 43.625 69.375 40 69 C37.5 66.9375 37.5 66.9375 36 64 C36 60.19715329 36.2031813 57.98069994 38.625 55 C42.05391443 53.55624656 44.4324389 54.15675828 48 55 C48.99 55.66 49.98 56.32 51 57 C47.72959688 39.01278282 38.80036747 24.06005465 24.125 13.125 C16.75764356 8.32327248 8.78630268 4.1311707 0 3 C0 2.01 0 1.02 0 0 Z " fill="#E5D000" transform="translate(245,204)"/>
<path d="M0 0 C4.83958517 1.13872592 7.72642368 4.3064926 11.1875 7.75 C11.66960937 7.32847656 12.15171875 6.90695313 12.6484375 6.47265625 C13.28007812 5.92480469 13.91171875 5.37695312 14.5625 4.8125 C15.50222656 3.99458984 15.50222656 3.99458984 16.4609375 3.16015625 C18.75952569 1.28280255 20.02067307 0.77224359 23 0.375 C26.1875 0.75 26.1875 0.75 29.0625 2.875 C31.1875 5.75 31.1875 5.75 31.9375 8.5625 C30.79877408 13.40208517 27.6310074 16.28892368 24.1875 19.75 C24.81978516 20.47316406 24.81978516 20.47316406 25.46484375 21.2109375 C26.01269531 21.84257813 26.56054688 22.47421875 27.125 23.125 C27.67027344 23.75148438 28.21554687 24.37796875 28.77734375 25.0234375 C30.65469745 27.32202569 31.16525641 28.58317307 31.5625 31.5625 C31.1875 34.75 31.1875 34.75 29.0625 37.625 C26.1875 39.75 26.1875 39.75 23.375 40.5 C18.53541483 39.36127408 15.64857632 36.1935074 12.1875 32.75 C11.46433594 33.38228516 11.46433594 33.38228516 10.7265625 34.02734375 C10.09492188 34.57519531 9.46328125 35.12304688 8.8125 35.6875 C8.18601562 36.23277344 7.55953125 36.77804688 6.9140625 37.33984375 C4.61547431 39.21719745 3.35432693 39.72775641 0.375 40.125 C-2.8125 39.75 -2.8125 39.75 -5.6875 37.625 C-7.8125 34.75 -7.8125 34.75 -8.5625 31.9375 C-7.42377408 27.09791483 -4.2560074 24.21107632 -0.8125 20.75 C-1.23402344 20.26789063 -1.65554688 19.78578125 -2.08984375 19.2890625 C-2.63769531 18.65742187 -3.18554688 18.02578125 -3.75 17.375 C-4.29527344 16.74851562 -4.84054687 16.12203125 -5.40234375 15.4765625 C-7.27969745 13.17797431 -7.79025641 11.91682693 -8.1875 8.9375 C-7.8125 5.75 -7.8125 5.75 -5.6875 2.875 C-2.8125 0.75 -2.8125 0.75 0 0 Z " fill="#000000" transform="translate(394.8125,75.25)"/>
<path d="M0 0 C4.83958517 1.13872592 7.72642368 4.3064926 11.1875 7.75 C11.66960937 7.32847656 12.15171875 6.90695313 12.6484375 6.47265625 C13.28007812 5.92480469 13.91171875 5.37695312 14.5625 4.8125 C15.50222656 3.99458984 15.50222656 3.99458984 16.4609375 3.16015625 C18.75952569 1.28280255 20.02067307 0.77224359 23 0.375 C26.1875 0.75 26.1875 0.75 29.0625 2.875 C31.1875 5.75 31.1875 5.75 31.9375 8.5625 C30.79877408 13.40208517 27.6310074 16.28892368 24.1875 19.75 C24.81978516 20.47316406 24.81978516 20.47316406 25.46484375 21.2109375 C26.01269531 21.84257813 26.56054688 22.47421875 27.125 23.125 C27.67027344 23.75148438 28.21554688 24.37796875 28.77734375 25.0234375 C31.42805746 28.26890969 31.51907986 30.60525173 31.1875 34.75 C30.1875 37.0625 30.1875 37.0625 28.1875 38.75 C23.36876778 40.30179512 23.36876778 40.30179512 20.1875 39.75 C17.14697019 37.75739472 14.66866574 35.39613687 12.1875 32.75 C11.46433594 33.38228516 11.46433594 33.38228516 10.7265625 34.02734375 C10.09492188 34.57519531 9.46328125 35.12304688 8.8125 35.6875 C8.18601563 36.23277344 7.55953125 36.77804688 6.9140625 37.33984375 C4.61547431 39.21719745 3.35432693 39.72775641 0.375 40.125 C-2.8125 39.75 -2.8125 39.75 -5.6875 37.625 C-7.8125 34.75 -7.8125 34.75 -8.5625 31.9375 C-7.42377408 27.09791483 -4.2560074 24.21107632 -0.8125 20.75 C-1.23402344 20.26789062 -1.65554687 19.78578125 -2.08984375 19.2890625 C-2.63769531 18.65742187 -3.18554688 18.02578125 -3.75 17.375 C-4.29527344 16.74851562 -4.84054688 16.12203125 -5.40234375 15.4765625 C-7.27969745 13.17797431 -7.79025641 11.91682693 -8.1875 8.9375 C-7.8125 5.75 -7.8125 5.75 -5.6875 2.875 C-2.8125 0.75 -2.8125 0.75 0 0 Z " fill="#000000" transform="translate(172.8125,26.25)"/>
<path d="M0 0 C5.04549438 2.94161842 9.11988056 6.80616738 11.7578125 12.08203125 C12.44179798 19.37040107 12.56983471 26.21371148 7.7578125 32.08203125 C3.25825574 36.51499838 -0.97930783 38.47365382 -7.3046875 38.76953125 C-14.48930115 38.38513154 -18.75775059 35.697228 -23.6171875 30.58203125 C-26.81459818 25.6629379 -27.74261249 21.98704616 -27.2421875 16.08203125 C-25.48770477 8.8859107 -22.03974269 5.11163011 -16.0546875 0.76953125 C-10.96013125 -1.93279859 -5.34117596 -2.18671838 0 0 Z " fill="#B8E670" transform="translate(146.2421875,88.91796875)"/>
<path d="M0 0 C5.76236741 1.61535218 10.68272673 4.41644449 15.875 7.3125 C17.82384263 8.39000348 19.77307655 9.46679948 21.72265625 10.54296875 C22.7398877 11.1054834 23.75711914 11.66799805 24.80517578 12.24755859 C28.10709912 14.05874656 31.42371826 15.8399125 34.74609375 17.61328125 C35.84260254 18.20004639 36.93911133 18.78681152 38.06884766 19.39135742 C40.20831567 20.53484397 42.34987866 21.67442058 44.49365234 22.80981445 C45.46125488 23.32890381 46.42885742 23.84799316 47.42578125 24.3828125 C48.28598877 24.84059082 49.14619629 25.29836914 50.0324707 25.77001953 C52 27 52 27 53 29 C52.28569824 29.38220703 51.57139648 29.76441406 50.83544922 30.15820312 C47.51422355 31.93680054 44.19428383 33.71778234 40.875 35.5 C40.28130615 35.81857971 39.6876123 36.13715942 39.07592773 36.46539307 C31.08409108 40.75697351 23.15153528 45.12322541 15.34375 49.7421875 C13 51 13 51 11 51 C10.98598145 50.12601562 10.98598145 50.12601562 10.97167969 49.234375 C10.6095856 31.17227007 8.34119188 16.23752018 0 0 Z " fill="#202020" transform="translate(321,233)"/>
<path d="M0 0 C0.66 0.33 1.32 0.66 2 1 C1.61328125 1.680625 1.2265625 2.36125 0.828125 3.0625 C-7.53036112 18.62087021 -8.72206896 33.67243718 -9 51 C-13.27962076 49.39923363 -17.28217157 47.36260451 -21.3125 45.2265625 C-22.00384033 44.86154633 -22.69518066 44.49653015 -23.4074707 44.12045288 C-24.86383361 43.35020722 -26.31946854 42.57858373 -27.77441406 41.80566406 C-29.98987921 40.63036904 -32.20962824 39.46346351 -34.4296875 38.296875 C-35.84922905 37.54478157 -37.26850873 36.79219364 -38.6875 36.0390625 C-39.34596924 35.6941275 -40.00443848 35.3491925 -40.68286133 34.99380493 C-44.44903466 32.98085651 -47.7550531 30.77573254 -51 28 C-41.29983564 22.69158432 -31.59725106 17.38799072 -21.85546875 12.15625 C-21.2665686 11.83987579 -20.67766846 11.52350159 -20.07092285 11.19754028 C-17.18012084 9.64496735 -14.28822675 8.09447373 -11.39501953 6.54638672 C-10.3429834 5.98193848 -9.29094727 5.41749023 -8.20703125 4.8359375 C-7.2735083 4.33626465 -6.33998535 3.8365918 -5.37817383 3.32177734 C-2.85205871 1.95960774 -2.85205871 1.95960774 0 0 Z " fill="#202020" transform="translate(189,233)"/>
<path d="M0 0 C5.13708917 2.10550763 8.94403525 5.35493358 12 10 C13.7097368 15.1292104 13.64617595 20.06147216 11.9375 25.1875 C8.85901775 29.65626455 5.19825506 33.26724831 0 35 C-5.83965277 35.74528686 -10.60144007 35.85691256 -15.5 32.3125 C-19.26478657 29.22569406 -21.70387037 25.98220106 -22.43359375 21.09765625 C-22.44156898 14.90089889 -22.40651172 10.75439422 -18 6 C-12.14795843 0.53610405 -7.9874969 -1.03930881 0 0 Z " fill="#A5E4EC" transform="translate(353,15)"/>
<path d="M0 0 C-0.32920331 10.79786867 -1.28276603 17.69746833 -9.1875 25.3125 C-15.30186819 30.40613897 -21.69550704 32.67800232 -29.67578125 32.34375 C-37.99305901 31.11363161 -43.63943749 27.31907369 -49 21 C-40.65153292 14.57514285 -34.09213227 11.6687379 -23.5 11.3203125 C-15.32605801 10.57225084 -5.9106435 0 0 0 Z " fill="#151515" transform="translate(166,130)"/>
<path d="M0 0 C3.4479282 2.62042543 4.78010684 3.80280391 5.5625 8.0625 C5 11 5 11 3.4375 13.375 C0.0734735 15.61768434 -2.02617986 15.488013 -6 15 C-7.16208984 14.25556641 -7.16208984 14.25556641 -8.34765625 13.49609375 C-11.47341808 11.73296152 -13.43544142 11.59772021 -17 11.625 C-18.010625 11.61726563 -19.02125 11.60953125 -20.0625 11.6015625 C-23.38662376 12.05244099 -25.20537064 13.20511326 -28 15 C-31.5625 15.5 -31.5625 15.5 -35 15 C-37.5 12.875 -37.5 12.875 -39 10 C-39.125 7 -39.125 7 -38 4 C-27.96697736 -6.27190413 -12.30839006 -7.26668413 0 0 Z " fill="#020301" transform="translate(272,285)"/>
<path d="M0 0 C4.72403852 1.9512333 7.72471109 5.44942218 10 10 C10.55068562 15.72713048 9.56556975 18.51756945 6 23 C3.52680316 25.86890833 1.5609338 26.81193569 -2.26953125 27.2734375 C-9.98442334 27.58155915 -9.98442334 27.58155915 -13.5 24.8125 C-17.43210444 20.3888825 -18.47853051 16.98186932 -18.3203125 10.9921875 C-17.65639055 6.86291685 -15.19468261 4.07241232 -12.16796875 1.35546875 C-8.3626062 -1.02373991 -4.33741894 -0.5148481 0 0 Z " fill="#62B6F8" transform="translate(309,88)"/>
<path d="M0 0 C6.41835987 -0.59185696 10.90811506 -0.29390509 16.2421875 3.49609375 C20.03602032 6.7419285 23.75465988 10.38572005 24.23828125 15.5390625 C24.39832859 22.19366248 24.35139098 27.69342563 20 33 C15.23601895 37.69347816 11.13021261 39.35919666 4.4375 39.375 C2.62318717 39.27986749 0.80926852 39.16531387 -1 39 C-0.2575 38.505 0.485 38.01 1.25 37.5 C5.5673 33.57518181 8.43819187 27.92463107 9.2734375 22.08984375 C9.68318297 13.40639173 5.73217492 6.36908325 0 0 Z " fill="#95D03A" transform="translate(134,88)"/>
<path d="M0 0 C2.4375 1.625 2.4375 1.625 4 4 C4.5625 6.9375 4.5625 6.9375 4 10 C0.17164063 14.55828003 -4.24953818 17.10358162 -9.4375 19.8125 C-10.54448242 20.42254883 -10.54448242 20.42254883 -11.67382812 21.04492188 C-15.89373268 23.27678251 -19.10424065 24.73071035 -24 24 C-27.20349759 21.28934819 -27.93218675 19.74594571 -28.3125 15.5625 C-26.34919754 10.23353618 -22.81757856 8.68347578 -18 6 C-16.61554688 5.15501953 -16.61554688 5.15501953 -15.203125 4.29296875 C-5.88707258 -1.20144338 -5.88707258 -1.20144338 0 0 Z " fill="#020404" transform="translate(319,424)"/>
<path d="M0 0 C0.7885864 6.0458291 -0.9487192 9.67122568 -4.2109375 14.7578125 C-7.44612865 18.81239704 -11.1127937 20.37093123 -16 22 C-22.10826364 22.63344956 -27.30804202 22.9731931 -32.5 19.375 C-33.0878125 18.88773438 -33.675625 18.40046875 -34.28125 17.8984375 C-34.8484375 17.60195312 -35.415625 17.30546875 -36 17 C-38.13118571 17.72183916 -38.13118571 17.72183916 -40 19 C-40.66 19.33 -41.32 19.66 -42 20 C-39.46426723 14.710146 -37.08576095 10.19212656 -32 7 C-28.00632397 6.37295554 -24.0403036 6.66912165 -20.01977539 6.88916016 C-13.41940791 7.204359 -9.23611315 6.23509152 -4 2 C-1 0 -1 0 0 0 Z " fill="#151515" transform="translate(326,122)"/>
<path d="M0 0 C6.47370603 -0.5969606 10.93687231 -0.26433651 16.30859375 3.56640625 C20.12403428 6.80027848 22.6991068 9.96213591 23.203125 15.05078125 C23.30893644 20.15618316 22.98572863 23.66587779 20 28 C16.162893 31.86432053 12.98097945 34.8921498 7.30078125 35.09765625 C6.31464844 35.08605469 5.32851563 35.07445312 4.3125 35.0625 C3.31863281 35.05347656 2.32476562 35.04445312 1.30078125 35.03515625 C0.16189453 35.01775391 0.16189453 35.01775391 -1 35 C-0.38382812 34.71769531 0.23234375 34.43539062 0.8671875 34.14453125 C5.34297214 31.74269077 7.40879297 27.65069522 9 23 C9.99885008 16.06062049 9.05902695 10.87688475 5.484375 4.875 C3.86380817 2.82796821 2.14807474 1.46876905 0 0 Z " fill="#6ED4E1" transform="translate(343,15)"/>
<path d="M0 0 C4.07214302 -0.06334445 7.64716765 -0.10787505 10.8984375 2.5546875 C13.84747425 6.02160387 15.86891606 8.63672707 16.3125 13.25 C15.89282325 18.28612097 13.79263316 20.8269534 10.65625 24.62890625 C8.52123559 26.39633563 7.05182326 26.48899831 4.3125 26.6875 C3.50425781 26.75324219 2.69601562 26.81898437 1.86328125 26.88671875 C0.94095703 26.94279297 0.94095703 26.94279297 0 27 C0.66 25.9275 1.32 24.855 2 23.75 C4.70928501 18.30240193 4.84847693 12.96381378 4 7 C2.93379506 4.26555198 1.742433 2.39584537 0 0 Z " fill="#31A3F5" transform="translate(303,88)"/>
<path d="M0 0 C2.5881216 2.25417042 2.94242643 3.60520979 3.4375 7 C3 10 3 10 1.4375 12.375 C-1.95870843 14.63913895 -4.00099302 14.64269755 -8 14 C-10.5 11.9375 -10.5 11.9375 -12 9 C-12 5.19715329 -11.7968187 2.98069994 -9.375 0 C-5.88418213 -1.46981805 -3.60851044 -0.98413921 0 0 Z " fill="#070902" transform="translate(293,259)"/>
<path d="M0 0 C3.75999106 0.93999776 5.2473603 2.51105689 7.5 5.625 C7.5 9.16861243 7.15850044 11.49091591 5.375 14.5625 C2.31547541 16.2962306 -0.06817525 16.04645216 -3.5 15.625 C-5.9375 14 -5.9375 14 -7.5 11.625 C-8.0625 8.6875 -8.0625 8.6875 -7.5 5.625 C-5.20985284 2.6150923 -3.70864386 0.92716097 0 0 Z " fill="#060802" transform="translate(223.5,257.375)"/>
</svg>
