<?xml version="1.0" encoding="UTF-8"?>
<svg version="1.1" xmlns="http://www.w3.org/2000/svg" width="512" height="512">
<path d="M0 0 C0.68930465 -0.00382555 1.37860931 -0.00765109 2.08880198 -0.01159257 C4.39795286 -0.02190918 6.70685447 -0.01793301 9.01602173 -0.01396179 C10.67188243 -0.01830905 12.32774111 -0.02349224 13.9835968 -0.02944946 C18.48157587 -0.04285015 22.97947096 -0.04341688 27.47746611 -0.04088616 C31.23243914 -0.03981705 34.98739514 -0.04469836 38.74236453 -0.04949158 C47.60166293 -0.06059074 56.46091895 -0.06102206 65.32022095 -0.05497742 C74.45882809 -0.04893804 83.59728126 -0.06124678 92.73586214 -0.08254749 C100.5822661 -0.10016366 108.42862107 -0.10616477 116.27504408 -0.10290974 C120.96114959 -0.10109657 125.64714528 -0.10373639 130.33323288 -0.11762428 C134.740952 -0.13019805 139.14843119 -0.12826282 143.55614662 -0.11521339 C145.17263813 -0.11284697 146.78914649 -0.11558467 148.40561867 -0.12383652 C150.61501021 -0.13430061 152.82359619 -0.12620678 155.03295898 -0.11352539 C156.26849707 -0.11369313 157.50403515 -0.11386087 158.77701378 -0.1140337 C163.15911066 0.37375134 166.54771548 1.77107924 169.78799438 4.79585266 C172.73413399 8.64849677 174.26423077 10.70738719 174.29063416 15.52296448 C174.30136711 16.86455376 174.30136711 16.86455376 174.31231689 18.23324585 C174.3150058 19.21715805 174.3176947 20.20107025 174.32046509 21.21479797 C174.32703629 22.24908432 174.33360748 23.28337067 174.34037781 24.34899902 C174.36014173 27.78310716 174.37178048 31.21717151 174.38174438 34.65132141 C174.38581991 35.82248253 174.38989544 36.99364365 174.39409447 38.20029449 C174.41496868 44.39930038 174.4292644 50.59828405 174.43862915 56.7973175 C174.44969471 63.2044782 174.48409286 69.6112917 174.52380085 76.01832962 C174.54993189 80.94083813 174.5583179 85.8632635 174.56191063 90.78583527 C174.56678586 93.14774164 174.57842634 95.50964407 174.59694862 97.87148285 C174.62126391 101.17760808 174.62038851 104.48282968 174.61343384 107.78901672 C174.63264893 109.25273964 174.63264893 109.25273964 174.6522522 110.74603271 C174.60861743 116.43725296 173.9881368 119.767778 170.14346313 124.26069641 C164.86895435 129.02061897 160.86095278 129.40438776 153.97549438 129.35835266 C153.18068161 129.35693771 152.38586884 129.35552277 151.56697083 129.35406494 C149.02992988 129.34847019 146.49297738 129.33591869 143.95596313 129.32319641 C142.23526128 129.31818073 140.51455805 129.31361794 138.79385376 129.30952454 C134.57702284 129.29850248 130.36025798 129.28124147 126.14346313 129.26069641 C126.14346313 134.21069641 126.14346313 139.16069641 126.14346313 144.26069641 C127.7321521 144.23713074 127.7321521 144.23713074 129.35293579 144.21308899 C133.30012339 144.15859519 137.24727803 144.12427595 141.19473267 144.09590149 C142.89986777 144.08085903 144.60496446 144.06041988 146.30996704 144.03437805 C148.76758325 143.99779357 151.22468582 143.98092468 153.68252563 143.96772766 C154.43901398 143.9522438 155.19550232 143.93675995 155.97491455 143.92080688 C161.43292884 143.91908988 165.65224645 144.93516634 169.78799438 148.79585266 C174.26952316 154.65631337 174.26952316 154.65631337 174.26371765 159.33555603 C174.26577965 160.61442436 174.26577965 160.61442436 174.2678833 161.91912842 C174.26428802 162.85636246 174.26069275 163.7935965 174.25698853 164.75923157 C174.25713455 165.74463425 174.25728058 166.73003693 174.25743103 167.74530029 C174.25673247 171.0134753 174.24894268 174.28159382 174.24111938 177.54975891 C174.239255 179.8113451 174.2378312 182.07293169 174.23683167 184.33451843 C174.23300806 190.2956198 174.2231791 196.25669693 174.21212769 202.2177887 C174.2019102 208.2971921 174.19733332 214.3765994 174.19229126 220.45600891 C174.18155671 232.39091542 174.16448215 244.3258039 174.14346313 256.26069641 C174.73772095 256.24498596 175.33197876 256.22927551 175.94424438 256.21308899 C178.67721768 256.15013072 181.41003769 256.11151546 184.14346313 256.07319641 C185.07803345 256.04805969 186.01260376 256.02292297 186.97549438 255.99702454 C194.83799006 255.91455081 201.67956905 257.10508287 207.75674438 262.61616516 C212.74726277 268.53449823 214.14346313 273.54696868 214.14346313 281.26069641 C206.22346313 281.26069641 198.30346313 281.26069641 190.14346313 281.26069641 C189.81346313 284.23069641 189.48346313 287.20069641 189.14346313 290.26069641 C188.15346313 291.91069641 187.16346313 293.56069641 186.14346313 295.26069641 C195.38346313 295.59069641 204.62346313 295.92069641 214.14346313 296.26069641 C214.14346313 303.66469762 213.22091756 307.29680524 209.14346313 313.26069641 C202.34261805 320.0615415 195.11937408 321.54731198 185.80752563 321.67475891 C184.48849747 321.70380814 184.48849747 321.70380814 183.14282227 321.73344421 C180.35146596 321.79292456 177.5600677 321.83949851 174.76846313 321.88569641 C172.86870619 321.92390526 170.96896603 321.96295867 169.06924438 322.00288391 C164.42745464 322.09859998 159.78558385 322.18274681 155.14346313 322.26069641 C155.54989044 322.6612323 155.95631775 323.06176819 156.37506104 323.47444153 C158.23055748 325.30642472 160.08156354 327.14288247 161.93252563 328.97944641 C162.5719812 329.60947571 163.21143677 330.239505 163.87026978 330.8886261 C170.40877419 337.38894327 174.28603619 342.1939301 174.42080688 351.76850891 C174.44231812 353.26994446 174.44231812 353.26994446 174.46426392 354.80171204 C174.45217723 359.29227305 174.33475832 363.77438287 174.14346313 368.26069641 C175.21983032 368.3676886 176.29619751 368.47468079 177.40518188 368.58491516 C181.01099478 369.23674968 182.35140922 369.66383155 184.95596313 372.07319641 C185.51928345 372.57464172 186.08260376 373.07608704 186.66299438 373.59272766 C190.51653207 377.93431233 190.41211493 382.14166271 190.33877563 387.74507141 C190.33594574 388.56066528 190.33311584 389.37625916 190.3302002 390.21656799 C190.31902872 392.81476169 190.29392989 395.41260736 190.26846313 398.01069641 C190.25842941 399.77501434 190.24930424 401.53933769 190.24111938 403.30366516 C190.21909933 407.62280914 190.18459047 411.94169382 190.14346313 416.26069641 C191.25423218 416.39951233 192.36500122 416.53832825 193.50942993 416.68135071 C197.09419492 417.25284196 198.37070169 417.68167822 200.95596313 420.07319641 C201.51928345 420.57464172 202.08260376 421.07608704 202.66299438 421.59272766 C206.05151073 425.41039647 206.23131032 428.23369482 206.14346313 433.26069641 C194.34765745 433.33016566 182.55190034 433.38349211 170.75593185 433.41613293 C165.27875296 433.43179782 159.80171389 433.45305127 154.32461548 433.48701477 C149.04024122 433.51957862 143.75600157 433.53754322 138.47153473 433.54532814 C136.45407237 433.55087698 134.43661749 433.56171234 132.41921234 433.57788658 C129.59633892 433.59962119 126.77402377 433.60266499 123.95108032 433.60127258 C122.69627617 433.61745132 122.69627617 433.61745132 121.41612244 433.63395691 C117.96145149 433.61548273 115.59809107 433.53186897 112.59298706 431.7394104 C112.11464417 431.25143478 111.63630127 430.76345917 111.14346313 430.26069641 C110.81346313 431.25069641 110.48346313 432.24069641 110.14346313 433.26069641 C98.36495796 433.35336816 86.58653949 433.42444725 74.80774403 433.4679451 C69.33838335 433.48882171 63.86927207 433.51714106 58.40005493 433.56245422 C53.122149 433.6059088 47.84448298 433.62983296 42.56641197 433.64020538 C40.55255036 433.64759741 38.53870191 433.66203227 36.5249424 433.68361664 C33.70454131 433.71264524 30.88513211 433.71665262 28.06460571 433.71479797 C27.23166489 433.72917908 26.39872406 433.74356018 25.5405426 433.75837708 C21.58137378 433.73019794 19.59942824 433.54094938 16.14839172 431.41981506 C13.34638237 428.40231574 13.01834957 425.96898547 12.98233032 422.00801086 C12.97272278 421.1531459 12.96311523 420.29828094 12.95321655 419.41751099 C12.94896667 418.49564499 12.9447168 417.57377899 12.94033813 416.62397766 C12.93463806 415.67056992 12.92893799 414.71716217 12.92306519 413.73486328 C12.91361594 411.71492115 12.9070815 409.69496361 12.90322876 407.67500305 C12.89355501 404.60237739 12.86254395 401.53042981 12.83096313 398.45796204 C12.82442957 396.4924712 12.81918049 394.5269756 12.81533813 392.56147766 C12.80299133 391.64973282 12.79064453 390.73798798 12.77792358 389.7986145 C12.79813573 383.93502409 13.6588283 379.59686233 16.14346313 374.26069641 C20.20729053 370.30106972 23.4628961 368.26069641 29.14346313 368.26069641 C27.94545639 362.5283994 25.93593956 359.38959357 21.62002563 355.38960266 C20.80614883 354.60056801 20.80614883 354.60056801 19.97583008 353.79559326 C18.25165322 352.12551848 16.51211874 350.47290714 14.76846313 348.82319641 C-1.87574326 333.03021963 -1.87574326 333.03021963 -2.85653687 321.26069641 C-3.72278687 321.17819641 -4.58903687 321.09569641 -5.48153687 321.01069641 C-10.43230408 319.91052592 -13.68281951 317.8796169 -16.66903687 313.76069641 C-18.999788 308.85385191 -18.99447008 304.27378517 -18.97006226 298.9120636 C-18.97020828 298.07267242 -18.97035431 297.23328125 -18.97050476 296.36845398 C-18.96980893 293.59813337 -18.96203193 290.82788026 -18.95419312 288.05757141 C-18.95232777 286.13514747 -18.95090441 284.21272305 -18.9499054 282.29029846 C-18.94608943 277.23342066 -18.93626699 272.17657164 -18.92520142 267.1197052 C-18.91496751 261.9583729 -18.91040353 256.79703594 -18.90536499 251.63569641 C-18.89464391 241.51068378 -18.87757852 231.38569249 -18.85653687 221.26069641 C-20.03240356 220.8014679 -20.03240356 220.8014679 -21.23202515 220.33296204 C-30.07193262 216.72134589 -35.81431275 209.50115613 -39.92294312 201.07319641 C-43.97043944 190.43629786 -43.69967796 178.87885944 -39.85653687 168.26069641 C-34.13029408 156.59668736 -26.00463086 149.65507421 -13.85653687 145.26069641 C-9.25440525 144.05646488 -4.77618555 144.13278989 -0.05575562 144.16304016 C1.19880684 144.16516258 1.19880684 144.16516258 2.47871399 144.16732788 C5.13783413 144.17290458 7.79686864 144.18545276 10.45596313 144.19819641 C12.26390462 144.20321442 14.07184744 144.2077768 15.87979126 144.21186829 C20.30104798 144.22286637 24.72224106 144.24011491 29.14346313 144.26069641 C29.14346313 139.31069641 29.14346313 134.36069641 29.14346313 129.26069641 C26.70971313 129.30710266 24.27596313 129.35350891 21.76846313 129.40132141 C19.38876425 129.43259332 17.00908902 129.45683738 14.62930298 129.48042297 C12.98629363 129.50043212 11.34335454 129.52764854 9.70059204 129.56245422 C7.32720525 129.61144946 4.95476664 129.63377145 2.58096313 129.65132141 C1.85667114 129.67196655 1.13237915 129.69261169 0.38613892 129.71388245 C-5.06630698 129.71623534 -9.32974673 128.3498321 -13.85653687 125.26069641 C-17.61823838 120.63090993 -18.97310202 116.8645233 -18.99697876 110.99916077 C-19.00554398 109.73351036 -19.00554398 109.73351036 -19.01428223 108.44229126 C-19.01540009 107.52481613 -19.01651794 106.607341 -19.01766968 105.6620636 C-19.02263458 104.68921921 -19.02759949 103.71637482 -19.03271484 102.71405029 C-19.04732092 99.4952168 -19.05413622 96.2764326 -19.05966187 93.05757141 C-19.06541499 90.81800841 -19.0711727 88.57844542 -19.07693481 86.33888245 C-19.08744065 81.64143138 -19.09328593 76.94399741 -19.09677124 72.24653625 C-19.10225233 66.2365225 -19.12627408 60.2267357 -19.15474319 54.21679306 C-19.17339659 49.58930305 -19.17857664 44.96186739 -19.18010712 40.33434296 C-19.18312851 38.11923737 -19.19113965 35.90413262 -19.2042923 33.68906403 C-19.22140751 30.58483785 -19.21945891 27.48116198 -19.21298218 24.37690735 C-19.22219696 23.46752914 -19.23141174 22.55815094 -19.24090576 21.62121582 C-19.2031915 15.83084871 -18.30142565 11.5345047 -15.85653687 6.26069641 C-10.85614621 1.3885209 -6.91776616 0.01150102 0 0 Z M58.14346313 321.26069641 C63.00629006 326.95622049 63.00629006 326.95622049 68.20596313 332.07319641 C78.58569417 342.63188832 78.04914122 354.16419345 78.14346313 368.26069641 C78.75834595 368.44172913 79.37322876 368.62276184 80.00674438 368.8092804 C80.81498657 369.06008362 81.62322876 369.31088684 82.45596313 369.56929016 C83.25647095 369.81219788 84.05697876 370.05510559 84.88174438 370.30537415 C89.0156776 372.05149684 91.15974448 375.29325911 93.14346313 379.26069641 C93.3003822 382.03001009 93.40189447 384.77803748 93.45986938 387.54975891 C93.48065048 388.36818268 93.50143158 389.18660645 93.52284241 390.02983093 C93.58831125 392.64836607 93.64721039 395.2670028 93.70596313 397.88569641 C93.7491509 399.65914448 93.79276527 401.43258222 93.83682251 403.20600891 C93.94398989 407.55746687 94.04526482 411.90902718 94.14346313 416.26069641 C95.06578735 416.53007019 95.06578735 416.53007019 96.00674438 416.80488586 C96.81498657 417.05456116 97.62322876 417.30423645 98.45596313 417.56147766 C99.65672485 417.92366394 99.65672485 417.92366394 100.88174438 418.29316711 C104.44260971 419.8164518 105.92861655 422.1460684 108.14346313 425.26069641 C108.47346313 425.26069641 108.80346313 425.26069641 109.14346313 425.26069641 C109.15804565 423.99999329 109.17262817 422.73929016 109.18765259 421.44038391 C109.245888 416.73616526 109.32311877 412.03241268 109.40591431 407.3285675 C109.43904527 405.29772032 109.46711357 403.26678368 109.48989868 401.23579407 C109.5236629 398.30620923 109.57598912 395.37743551 109.63174438 392.44819641 C109.63813431 391.54891418 109.64452423 390.64963196 109.65110779 389.72309875 C109.79417263 383.5052555 110.33477852 376.97710392 115.04580688 372.42085266 C116.05320923 371.87751282 116.05320923 371.87751282 117.08096313 371.32319641 C117.74998657 370.94292297 118.41901001 370.56264954 119.10830688 370.17085266 C121.10913951 369.27604652 123.00339329 368.7155211 125.14346313 368.26069641 C125.60926282 365.51376328 125.60926282 365.51376328 125.14346313 362.26069641 C123.34886993 359.98897828 121.69992822 358.20727918 119.59658813 356.26850891 C119.02897766 355.71887482 118.46136719 355.16924072 117.8765564 354.60295105 C116.06256079 352.84888703 114.23018084 351.11593074 112.39346313 349.38569641 C110.57270566 347.6610989 108.75703204 345.93218338 106.95321655 344.18986511 C105.83263909 343.10829122 104.70234502 342.03665718 103.5607605 340.97727966 C97.55185051 335.19554458 95.42709281 329.25340027 93.14346313 321.26069641 C81.59346313 321.26069641 70.04346313 321.26069641 58.14346313 321.26069641 Z " fill="#565B6E" transform="translate(180.85653686523438,66.73930358886719)"/>
<path d="M0 0 C8.61271551 6.88685344 14.54492627 15.4628973 16.02734375 26.62109375 C17.18282911 37.442058 14.50302362 47.0720467 8.21484375 55.99609375 C3.91348354 61.24219716 -0.90284475 65.586188 -6.97265625 68.62109375 C-7.30265625 82.81109375 -7.63265625 97.00109375 -7.97265625 111.62109375 C-0.86726575 110.61233163 -0.86726575 110.61233163 4.02734375 106.62109375 C10.00630466 103.39863813 15.14178011 103.16742713 21.859375 103.1875 C22.89116379 103.18225815 23.92295258 103.1770163 24.98600769 103.1716156 C27.16196801 103.16521309 29.33796303 103.16650936 31.51391602 103.17504883 C34.81915932 103.18354061 38.12266225 103.15480038 41.42773438 103.12304688 C43.55078074 103.12143404 45.67383013 103.12201397 47.796875 103.125 C48.77324417 103.11376602 49.74961334 103.10253204 50.75556946 103.09095764 C58.72298964 103.17066992 65.92170015 105.06133803 72.40234375 109.87109375 C74.70445071 112.28282485 75.78994447 113.87077185 77.19140625 116.79296875 C77.71275146 117.86949707 77.71275146 117.86949707 78.24462891 118.96777344 C78.63207275 119.78616699 78.63207275 119.78616699 79.02734375 120.62109375 C79.02654816 119.4796138 79.02575256 118.33813385 79.02493286 117.1620636 C79.02133093 106.40590638 79.04910588 95.65022715 79.10762215 84.89422321 C79.13669754 79.36434486 79.15470699 73.83489115 79.14746094 68.30493164 C79.14087485 62.96835816 79.16331218 57.63262433 79.20589828 52.29622459 C79.21704229 50.26010311 79.21771804 48.2238966 79.20776749 46.18776894 C79.19561511 43.33559169 79.22063785 40.48598528 79.25439453 37.6340332 C79.24217361 36.79174164 79.2299527 35.94945007 79.21736145 35.08163452 C79.33657729 29.49383787 79.33657729 29.49383787 81.32878399 26.97679806 C84.37128317 24.3444298 86.7889272 22.98842129 90.8125 22.9921875 C91.67294922 22.99025391 92.53339844 22.98832031 93.41992188 22.98632812 C94.30099609 23.01017578 95.18207031 23.03402344 96.08984375 23.05859375 C96.97478516 23.04763672 97.85972656 23.03667969 98.77148438 23.02539062 C103.02256774 23.07322727 105.41621672 23.23943204 109.0859375 25.53125 C111.73014276 28.37762789 112.15267106 29.88593804 112.1812439 33.66230774 C112.18984436 34.50766083 112.19844482 35.35301392 112.20730591 36.22398376 C112.21369583 37.61805199 112.21369583 37.61805199 112.22021484 39.0402832 C112.23248108 40.50634003 112.23248108 40.50634003 112.24499512 42.00201416 C112.26986908 45.24612815 112.28636959 48.49019835 112.30078125 51.734375 C112.30610493 52.84058889 112.3114286 53.94680279 112.3169136 55.08653831 C112.34365289 60.94074181 112.363026 66.79492391 112.37744141 72.64916992 C112.39409819 78.70228531 112.43888289 84.7548572 112.48981285 90.80776691 C112.52343284 95.4565851 112.53501308 100.1052734 112.54066849 104.75420189 C112.54739462 106.98577215 112.56265178 109.21733346 112.5865593 111.44878578 C112.61810249 114.57088434 112.61826363 117.6915053 112.61083984 120.8137207 C112.62724518 121.73702682 112.64365051 122.66033295 112.66055298 123.61161804 C112.6165782 128.12520874 112.49453929 130.01617621 109.65434265 133.69361877 C106.69513456 135.86484144 105.27773324 136.26271163 101.6484375 136.28515625 C100.14313477 136.29482422 100.14313477 136.29482422 98.60742188 136.3046875 C97.57037109 136.28535156 96.53332031 136.26601563 95.46484375 136.24609375 C94.42392578 136.26542969 93.38300781 136.28476562 92.31054688 136.3046875 C84.74136894 136.25601111 84.74136894 136.25601111 81.3125 133.20703125 C80.02734375 130.62109375 80.02734375 130.62109375 80.02734375 128.62109375 C72.10734375 128.62109375 64.18734375 128.62109375 56.02734375 128.62109375 C55.69734375 130.93109375 55.36734375 133.24109375 55.02734375 135.62109375 C53.70734375 138.26109375 52.38734375 140.90109375 51.02734375 143.62109375 C60.59734375 143.62109375 70.16734375 143.62109375 80.02734375 143.62109375 C80.02734375 150.92162353 78.09952333 154.3209559 74.33984375 160.30859375 C68.6026811 166.0457564 61.80470089 168.61271294 53.82421875 168.9375 C52.3546875 169.0003418 52.3546875 169.0003418 50.85546875 169.06445312 C49.8396875 169.10376953 48.82390625 169.14308594 47.77734375 169.18359375 C46.23046875 169.24836914 46.23046875 169.24836914 44.65234375 169.31445312 C42.11080505 169.42035057 39.56917179 169.52242818 37.02734375 169.62109375 C37.97996094 170.51570312 38.93257813 171.4103125 39.9140625 172.33203125 C55.46219768 187.17437107 55.46219768 187.17437107 56.26538086 196.33642578 C56.27835205 197.25794434 56.29132324 198.17946289 56.3046875 199.12890625 C56.32619873 200.6303418 56.32619873 200.6303418 56.34814453 202.16210938 C56.33605784 206.65267039 56.21863894 211.13478021 56.02734375 215.62109375 C57.10371094 215.72808594 58.18007813 215.83507812 59.2890625 215.9453125 C62.89487539 216.59714701 64.23528983 217.02422889 66.83984375 219.43359375 C67.40316406 219.93503906 67.96648437 220.43648437 68.546875 220.953125 C72.40041268 225.29470967 72.29599555 229.50206005 72.22265625 235.10546875 C72.21982635 235.92106262 72.21699646 236.73665649 72.21408081 237.57696533 C72.20290933 240.17515903 72.1778105 242.7730047 72.15234375 245.37109375 C72.14231002 247.13541168 72.13318486 248.89973503 72.125 250.6640625 C72.10297994 254.98320648 72.06847108 259.30209116 72.02734375 263.62109375 C73.03796875 263.66234375 74.04859375 263.70359375 75.08984375 263.74609375 C79.88636457 264.38236692 82.70248933 267.31645121 86.02734375 270.62109375 C86.04192627 269.42097656 86.05650879 268.22085937 86.0715332 266.984375 C86.12979393 262.5037759 86.20702408 258.02366482 86.28979492 253.54345703 C86.32291412 251.60961873 86.35098599 249.67568679 86.3737793 247.74169922 C86.4075656 244.95109396 86.45989205 242.16133684 86.515625 239.37109375 C86.52201492 238.51555908 86.52840485 237.66002441 86.5349884 236.77856445 C86.69465081 230.16234278 87.52025049 224.06390257 92.46484375 219.24609375 C96.45370099 216.71657453 98.1856188 215.62109375 103.02734375 215.62109375 C101.829337 209.88879674 99.81982017 206.74999091 95.50390625 202.75 C94.96132172 202.2239769 94.41873718 201.6979538 93.85971069 201.1559906 C92.13553383 199.48591582 90.39599935 197.83330447 88.65234375 196.18359375 C71.73187798 180.12848625 71.73187798 180.12848625 71.02734375 168.62109375 C72.8761283 166.7723092 75.90639285 167.48638687 78.37963867 167.47924805 C79.37489563 167.47403641 79.37489563 167.47403641 80.39025879 167.46871948 C81.83623091 167.46134968 83.28221445 167.45601085 84.72820091 167.45242882 C87.01935922 167.44527645 89.3103017 167.4296175 91.60139465 167.41108704 C98.11745155 167.35857311 104.63339447 167.31067554 111.1496582 167.29516602 C115.13217511 167.28506438 119.11415565 167.25567952 123.09646034 167.21384621 C124.61260221 167.20155601 126.12881995 167.19641134 127.64500999 167.19864464 C129.7732766 167.20100701 131.90001648 167.17876226 134.02807617 167.15112305 C135.23751389 167.14525681 136.4469516 167.13939056 137.69303894 167.13334656 C142.48923221 166.39650226 145.61296736 164.18178494 148.83984375 160.62109375 C150.97085402 157.03202382 151.1613355 153.6021412 151.23266602 149.48535156 C151.25261124 148.46459534 151.27255646 147.44383911 151.29310608 146.39215088 C151.30981857 145.29723328 151.32653107 144.20231567 151.34375 143.07421875 C151.37492165 141.384711 151.37492165 141.384711 151.40672302 139.66107178 C151.47208708 136.06447426 151.5310426 132.46780398 151.58984375 128.87109375 C151.63304145 126.43228415 151.67665615 123.99348191 151.72070312 121.5546875 C151.82775505 115.57689975 151.92954592 109.59903968 152.02734375 103.62109375 C155.36050652 103.53297461 158.69336422 103.48033178 162.02734375 103.43359375 C162.96191406 103.40845703 163.89648438 103.38332031 164.859375 103.35742188 C172.72187067 103.27494814 179.56344967 104.46548021 185.640625 109.9765625 C190.63114338 115.89489557 192.02734375 120.90736602 192.02734375 128.62109375 C184.10734375 128.62109375 176.18734375 128.62109375 168.02734375 128.62109375 C167.69734375 131.59109375 167.36734375 134.56109375 167.02734375 137.62109375 C166.03734375 139.27109375 165.04734375 140.92109375 164.02734375 142.62109375 C173.26734375 142.95109375 182.50734375 143.28109375 192.02734375 143.62109375 C192.02734375 151.02509495 191.10479817 154.65720258 187.02734375 160.62109375 C180.22649866 167.42193884 173.0032547 168.90770932 163.69140625 169.03515625 C162.37237808 169.06420547 162.37237808 169.06420547 161.02670288 169.09384155 C158.23534657 169.1533219 155.44394832 169.19989585 152.65234375 169.24609375 C150.75258681 169.2843026 148.85284665 169.32335601 146.953125 169.36328125 C142.31133525 169.45899732 137.66946446 169.54314415 133.02734375 169.62109375 C133.43377106 170.02162964 133.84019836 170.42216553 134.25894165 170.83483887 C136.1144381 172.66682206 137.96544415 174.5032798 139.81640625 176.33984375 C140.45586182 176.96987305 141.09531738 177.59990234 141.75415039 178.24902344 C148.2926548 184.74934061 152.16991681 189.55432744 152.3046875 199.12890625 C152.32619873 200.6303418 152.32619873 200.6303418 152.34814453 202.16210938 C152.33605784 206.65267039 152.21863894 211.13478021 152.02734375 215.62109375 C153.10371094 215.72808594 154.18007813 215.83507812 155.2890625 215.9453125 C158.89487539 216.59714701 160.23528983 217.02422889 162.83984375 219.43359375 C163.40316406 219.93503906 163.96648437 220.43648437 164.546875 220.953125 C168.40041268 225.29470967 168.29599555 229.50206005 168.22265625 235.10546875 C168.21982635 235.92106262 168.21699646 236.73665649 168.21408081 237.57696533 C168.20290933 240.17515903 168.1778105 242.7730047 168.15234375 245.37109375 C168.14231002 247.13541168 168.13318486 248.89973503 168.125 250.6640625 C168.10297994 254.98320648 168.06847108 259.30209116 168.02734375 263.62109375 C169.13811279 263.75990967 170.24888184 263.89872559 171.39331055 264.04174805 C174.97807553 264.6132393 176.25458231 265.04207556 178.83984375 267.43359375 C179.40316406 267.93503906 179.96648437 268.43648438 180.546875 268.953125 C183.93539135 272.77079381 184.11519093 275.59409216 184.02734375 280.62109375 C172.23153807 280.690563 160.43578095 280.74388945 148.63981247 280.77653027 C143.16263358 280.79219516 137.68559451 280.81344861 132.20849609 280.84741211 C126.92412184 280.87997596 121.63988218 280.89794056 116.35541534 280.90572548 C114.33795299 280.91127432 112.32049811 280.92210968 110.30309296 280.93828392 C107.48021953 280.96001853 104.65790439 280.96306232 101.83496094 280.96166992 C100.58015678 280.97784866 100.58015678 280.97784866 99.30000305 280.99435425 C95.8453321 280.97588007 93.48197169 280.89226631 90.47686768 279.09980774 C89.99852478 278.61183212 89.52018188 278.12385651 89.02734375 277.62109375 C88.69734375 278.61109375 88.36734375 279.60109375 88.02734375 280.62109375 C76.24883858 280.71376549 64.47042011 280.78484458 52.69162464 280.82834244 C47.22226397 280.84921905 41.75315269 280.8775384 36.28393555 280.92285156 C31.00602962 280.96630614 25.7283636 280.9902303 20.45029259 281.00060272 C18.43643097 281.00799475 16.42258252 281.02242961 14.40882301 281.04401398 C11.58842192 281.07304258 8.76901272 281.07704995 5.94848633 281.07519531 C5.1155455 281.08957642 4.28260468 281.10395752 3.42442322 281.11877441 C-0.5347456 281.09059528 -2.51669114 280.90134672 -5.96772766 278.7802124 C-8.76973702 275.76271307 -9.09776982 273.32938281 -9.13378906 269.3684082 C-9.14339661 268.51354324 -9.15300415 267.65867828 -9.16290283 266.77790833 C-9.16715271 265.85604233 -9.17140259 264.93417633 -9.17578125 263.984375 C-9.18148132 263.03096725 -9.1871814 262.07755951 -9.1930542 261.09526062 C-9.20250345 259.07531849 -9.20903788 257.05536095 -9.21289062 255.03540039 C-9.22256438 251.96277473 -9.25357544 248.89082715 -9.28515625 245.81835938 C-9.29168982 243.85286854 -9.2969389 241.88737294 -9.30078125 239.921875 C-9.31312805 239.01013016 -9.32547485 238.09838531 -9.3381958 237.15901184 C-9.31798366 231.29542143 -8.45729108 226.95725967 -5.97265625 221.62109375 C-1.90882886 217.66146706 1.34677671 215.62109375 7.02734375 215.62109375 C5.829337 209.88879674 3.81982017 206.74999091 -0.49609375 202.75 C-1.03867828 202.2239769 -1.58126282 201.6979538 -2.14028931 201.1559906 C-3.86446617 199.48591582 -5.60400065 197.83330447 -7.34765625 196.18359375 C-23.99186265 180.39061697 -23.99186265 180.39061697 -24.97265625 168.62109375 C-25.83890625 168.53859375 -26.70515625 168.45609375 -27.59765625 168.37109375 C-32.54842346 167.27092326 -35.79893889 165.24001424 -38.78515625 161.12109375 C-41.11590739 156.21424925 -41.11058946 151.63418251 -41.08618164 146.27246094 C-41.08632767 145.43306976 -41.08647369 144.59367859 -41.08662415 143.72885132 C-41.08592832 140.95853071 -41.07815132 138.1882776 -41.0703125 135.41796875 C-41.06844715 133.49554481 -41.0670238 131.57312039 -41.06602478 129.6506958 C-41.06220882 124.593818 -41.05238637 119.53696898 -41.0413208 114.48010254 C-41.0310869 109.31877024 -41.02652292 104.15743328 -41.02148438 98.99609375 C-41.0107633 88.87108112 -40.9936979 78.74608983 -40.97265625 68.62109375 C-42.14852295 68.16186523 -42.14852295 68.16186523 -43.34814453 67.69335938 C-52.188052 64.08174322 -57.93043214 56.86155347 -62.0390625 48.43359375 C-66.08655882 37.7966952 -65.81579735 26.23925678 -61.97265625 15.62109375 C-56.24641347 3.9570847 -48.12075025 -2.98452845 -35.97265625 -7.37890625 C-23.12309196 -10.55088989 -10.64566402 -7.71955022 0 0 Z " fill="#463D4C" transform="translate(202.97265625,219.37890625)"/>
<path d="M0 0 C20.62737626 -0.07008431 41.25473288 -0.12298537 61.88220406 -0.15543652 C71.45992132 -0.17090471 81.0375646 -0.19199334 90.61523438 -0.22631836 C98.96323314 -0.25622215 107.31117832 -0.27557535 115.65922916 -0.28226548 C120.07937622 -0.28617608 124.49937 -0.29536555 128.91946793 -0.31719017 C133.08087712 -0.33757078 137.24207004 -0.34383062 141.4035244 -0.33932304 C142.92972044 -0.34014754 144.4559238 -0.34610389 145.98207664 -0.35761642 C148.06905459 -0.37258571 150.15522051 -0.36893814 152.24221802 -0.36076355 C153.40920794 -0.36352893 154.57619785 -0.36629431 155.7785511 -0.36914349 C160.08216079 0.12400402 163.4631268 1.56534164 166.64453125 4.53515625 C170.17233428 9.14843713 171.1249614 11.18752376 171.14044189 16.96391296 C171.14615204 18.23549759 171.15186218 19.50708221 171.15774536 20.81719971 C171.1589908 22.23449697 171.16011588 23.65179435 171.16113281 25.0690918 C171.16576009 26.55554834 171.17078463 28.04200368 171.17617798 29.52845764 C171.18931566 33.57413428 171.19574999 37.61979431 171.20018864 41.66548896 C171.20311812 44.19327821 171.20722276 46.72106291 171.21169281 49.24884987 C171.22537345 57.15805086 171.23503644 65.06724147 171.2388947 72.97645348 C171.24337225 82.10522052 171.26090362 91.23383758 171.2898953 100.36255902 C171.31152479 107.4182798 171.32159971 114.47395844 171.32293582 121.52971202 C171.32398326 125.74361323 171.32987752 129.95737357 171.34775543 134.17123985 C171.3642573 138.13817252 171.36638143 142.10485878 171.35761642 146.07181358 C171.35684709 147.52502096 171.36117516 148.97824169 171.37107468 150.43141556 C171.47126928 166.06059517 171.47126928 166.06059517 166.46484375 171.7421875 C161.3661751 175.52380875 158.48445636 176.15804884 152.24560547 176.20532227 C151.44552063 176.21522186 150.64543579 176.22512146 149.82110596 176.23532104 C147.16983017 176.26697262 144.51853644 176.29170789 141.8671875 176.31640625 C140.03158089 176.33697262 138.19597904 176.35796901 136.36038208 176.37937927 C131.52382261 176.43463268 126.68722017 176.48402752 121.85058594 176.53222656 C116.9172787 176.58241774 111.98403404 176.63811623 107.05078125 176.69335938 C97.36724092 176.80098092 87.68364632 176.90241701 78 177 C78.91458984 176.54512207 78.91458984 176.54512207 79.84765625 176.08105469 C87.82930532 172.07212296 93.25133804 168.78665676 97.1875 160.5 C98.24132311 157.46800611 98.24132311 157.46800611 99 152 C89.43 152 79.86 152 70 152 C70.66 150.35 71.32 148.7 72 147 C72.56158625 145.23538266 73.10376039 143.46445322 73.625 141.6875 C73.88539063 140.80449219 74.14578125 139.92148437 74.4140625 139.01171875 C74.60742188 138.34785156 74.80078125 137.68398438 75 137 C78.91610484 136.82573244 82.83121497 136.71915845 86.75 136.625 C87.86117187 136.57472656 88.97234375 136.52445313 90.1171875 136.47265625 C93.18722311 136.41717368 95.98397715 136.41387383 99 137 C100.35956267 138.98226313 101.69331969 140.9824856 103 143 C106.83156435 143.90075649 110.58390703 143.74571803 114.5 143.625 C115.54542969 143.63144531 116.59085937 143.63789063 117.66796875 143.64453125 C123.19596728 143.72827855 123.19596728 143.72827855 128.12303162 141.56855774 C130.97072247 137.67160431 130.56679832 134.06668082 130.53344727 129.35375977 C130.54206284 128.3760965 130.55067841 127.39843323 130.55955505 126.3911438 C130.58226773 123.15762904 130.57546597 119.92497726 130.56640625 116.69140625 C130.57163967 114.44465374 130.57791511 112.19790344 130.58518982 109.95115662 C130.59560401 105.24101426 130.59101804 100.53117383 130.57641602 95.82104492 C130.55923177 89.78357804 130.58271454 83.74706312 130.61790562 77.70970249 C130.639862 73.06940905 130.63844224 68.42934396 130.6301403 63.78901482 C130.62931973 61.56305841 130.63620325 59.33708541 130.65091133 57.11117744 C130.66832293 53.99873415 130.65384155 50.8880088 130.63110352 47.77563477 C130.64279572 46.85547073 130.65448792 45.9353067 130.66653442 44.98725891 C130.59939992 40.47276426 130.464414 38.59580434 127.6058197 34.9284668 C124.85219582 32.89061582 123.67912611 32.36796362 120.3125 32.37109375 C119.44882812 32.36916016 118.58515625 32.36722656 117.6953125 32.36523438 C116.36113281 32.40100586 116.36113281 32.40100586 115 32.4375 C114.11054688 32.42654297 113.22109375 32.41558594 112.3046875 32.40429688 C108.37761224 32.44825667 105.89138252 32.50222581 102.39595032 34.45417786 C98.88550038 38.18421396 99.29218293 41.31099798 99.34057617 46.26660156 C99.33009247 47.20352844 99.31960876 48.14045532 99.30880737 49.10577393 C99.28001777 52.20105954 99.28635361 55.29522927 99.29296875 58.390625 C99.27985612 60.53726608 99.26455324 62.68389481 99.24714661 64.83050537 C99.20723314 70.47927332 99.19710203 76.12771898 99.19311523 81.77661133 C99.18379582 87.54127824 99.14638972 93.30575484 99.11132812 99.0703125 C99.04668752 110.38019939 99.01350047 121.68994456 99 133 C98.00468547 131.02554865 97.02683136 129.06134625 96.140625 127.03515625 C93.65771822 121.53573552 90.80977887 117.70708567 85.09544373 115.14660645 C78.9880625 112.96744943 73.42547277 112.53258698 66.97265625 112.53125 C65.94369736 112.52363647 64.91473846 112.51602295 63.854599 112.50817871 C61.69060681 112.49743131 59.52656298 112.49450263 57.36254883 112.49902344 C54.07479439 112.49999636 50.78937195 112.45829778 47.50195312 112.4140625 C45.38802564 112.40885482 43.27409014 112.40616732 41.16015625 112.40625 C40.19006119 112.38985474 39.21996613 112.37345947 38.22047424 112.35656738 C30.53996049 112.43331894 23.5596463 114.4403537 18 120 C14.375 120.125 14.375 120.125 11 120 C10.75198893 114.00461865 10.57098731 108.01224498 10.45068359 102.01293945 C10.40052326 99.97464986 10.33237246 97.93671785 10.24560547 95.8996582 C9.5405092 78.91513345 9.5405092 78.91513345 13.13647461 74.1965332 C15.69585685 72.43172505 18.16529337 71.25114324 21 70 C28.05544761 63.81069844 33.3266683 53.95408145 34.23828125 44.5390625 C34.50410316 34.10205471 32.5666115 23.94097456 25.69140625 15.7734375 C18.11709631 7.83178228 10.59214213 3.70437671 0 1 C0 0.67 0 0.34 0 0 Z " fill="#A4C2DB" transform="translate(184,211)"/>
<path d="M0 0 C3.33316277 -0.08811914 6.66602047 -0.14076197 10 -0.1875 C10.93457031 -0.21263672 11.86914062 -0.23777344 12.83203125 -0.26367188 C20.69452692 -0.34614561 27.53610592 0.84438646 33.61328125 6.35546875 C38.60379963 12.27380182 40 17.28627227 40 25 C32.08 25 24.16 25 16 25 C15.67 27.97 15.34 30.94 15 34 C14.01 35.65 13.02 37.3 12 39 C25.86 39.495 25.86 39.495 40 40 C40 47.4040012 39.07745442 51.03610883 35 57 C28.19915491 63.80084509 20.97591095 65.28661557 11.6640625 65.4140625 C10.78471039 65.43342865 9.90535828 65.4527948 8.99935913 65.4727478 C6.20800282 65.53222815 3.41660457 65.5788021 0.625 65.625 C-1.27475694 65.66320885 -3.1744971 65.70226226 -5.07421875 65.7421875 C-9.7160085 65.83790357 -14.35787929 65.9220504 -19 66 C-18.59357269 66.40053589 -18.18714539 66.80107178 -17.7684021 67.21374512 C-15.91290565 69.04572831 -14.0618996 70.88218605 -12.2109375 72.71875 C-11.57148193 73.3487793 -10.93202637 73.97880859 -10.27319336 74.62792969 C-3.73468895 81.12824686 0.14257306 85.93323369 0.27734375 95.5078125 C0.29885498 97.00924805 0.29885498 97.00924805 0.32080078 98.54101562 C0.30871409 103.03157664 0.19129519 107.51368646 0 112 C1.07636719 112.10699219 2.15273438 112.21398437 3.26171875 112.32421875 C6.86753164 112.97605326 8.20794608 113.40313514 10.8125 115.8125 C11.37582031 116.31394531 11.93914062 116.81539063 12.51953125 117.33203125 C16.37306893 121.67361592 16.2686518 125.8809663 16.1953125 131.484375 C16.1924826 132.29996887 16.18965271 133.11556274 16.18673706 133.95587158 C16.17556558 136.55406528 16.15046675 139.15191095 16.125 141.75 C16.11496627 143.51431793 16.10584111 145.27864128 16.09765625 147.04296875 C16.07563619 151.36211273 16.04112733 155.68099741 16 160 C17.11076904 160.13881592 18.22153809 160.27763184 19.3659668 160.4206543 C22.95073178 160.99214555 24.22723856 161.42098181 26.8125 163.8125 C27.37582031 164.31394531 27.93914062 164.81539062 28.51953125 165.33203125 C31.9080476 169.14970006 32.08784718 171.97299841 32 177 C20.20419432 177.06946925 8.4084372 177.1227957 -3.38753128 177.15543652 C-8.86471017 177.17110141 -14.34174924 177.19235486 -19.81884766 177.22631836 C-25.10322191 177.25888221 -30.38746157 177.27684681 -35.67192841 177.28463173 C-37.68939076 177.29018057 -39.70684564 177.30101593 -41.72425079 177.31719017 C-44.54712422 177.33892478 -47.36943936 177.34196857 -50.19238281 177.34057617 C-51.02891891 177.351362 -51.86545502 177.36214783 -52.7273407 177.3732605 C-56.18201165 177.35478632 -58.54537206 177.27117256 -61.55047607 175.47871399 C-62.02881897 174.99073837 -62.50716187 174.50276276 -63 174 C-63.33 174.99 -63.66 175.98 -64 177 C-75.77850517 177.09267174 -87.55692364 177.16375083 -99.33571911 177.20724869 C-104.80507978 177.2281253 -110.27419106 177.25644465 -115.7434082 177.30175781 C-121.02131413 177.34521239 -126.29898015 177.36913655 -131.57705116 177.37950897 C-133.59091278 177.386901 -135.60476123 177.40133586 -137.61852074 177.42292023 C-140.43892183 177.45194883 -143.25833103 177.4559562 -146.07885742 177.45410156 C-146.91179825 177.46848267 -147.74473907 177.48286377 -148.60292053 177.49768066 C-152.56208935 177.46950153 -154.54403489 177.28025297 -157.99507141 175.15911865 C-160.79708077 172.14161932 -161.12511357 169.70828906 -161.16113281 165.74731445 C-161.17074036 164.89244949 -161.1803479 164.03758453 -161.19024658 163.15681458 C-161.19449646 162.23494858 -161.19874634 161.31308258 -161.203125 160.36328125 C-161.20882507 159.4098735 -161.21452515 158.45646576 -161.22039795 157.47416687 C-161.2298472 155.45422474 -161.23638163 153.4342672 -161.24023438 151.41430664 C-161.24990813 148.34168098 -161.28091919 145.2697334 -161.3125 142.19726562 C-161.31903357 140.23177479 -161.32428265 138.26627919 -161.328125 136.30078125 C-161.3404718 135.38903641 -161.3528186 134.47729156 -161.36553955 133.53791809 C-161.34532741 127.67432768 -160.48463483 123.33616592 -158 118 C-153.50312153 113.61842611 -149.65787987 111.75455435 -143.40869141 111.7253418 C-142.28717682 111.71580978 -141.16566223 111.70627777 -140.01016235 111.69645691 C-138.8028244 111.69736832 -137.59548645 111.69827972 -136.3515625 111.69921875 C-135.10627777 111.69493362 -133.86099304 111.6906485 -132.57797241 111.68623352 C-129.94343972 111.68048964 -127.30929871 111.67905504 -124.67480469 111.68432617 C-121.97834629 111.68896388 -119.28233795 111.68202349 -116.5859375 111.66381836 C-112.69517286 111.63931073 -108.80489474 111.63516359 -104.9140625 111.63671875 C-103.71077301 111.627509 -102.50748352 111.61829926 -101.26773071 111.60881042 C-94.62467442 111.64549912 -89.45315513 111.77650839 -84.35546875 116.53515625 C-80.32251658 121.80901678 -79.86020883 124.76624876 -79.90234375 131.2890625 C-79.9037587 132.10748627 -79.90517365 132.92591003 -79.90663147 133.76913452 C-79.9122371 136.38779325 -79.92479052 139.00636704 -79.9375 141.625 C-79.94251428 143.39843627 -79.94707731 145.17187387 -79.95117188 146.9453125 C-79.96220836 151.29690782 -79.97947675 155.6484395 -80 160 C-78.989375 160.04125 -77.97875 160.0825 -76.9375 160.125 C-72.14097918 160.76127317 -69.32485442 163.69535746 -66 167 C-65.98541748 165.79988281 -65.97083496 164.59976563 -65.95581055 163.36328125 C-65.89754982 158.88268215 -65.82031967 154.40257107 -65.73754883 149.92236328 C-65.70442963 147.98852498 -65.67635776 146.05459304 -65.65356445 144.12060547 C-65.61977815 141.33000021 -65.5674517 138.54024309 -65.51171875 135.75 C-65.50532883 134.89446533 -65.4989389 134.03893066 -65.49235535 133.1574707 C-65.33269294 126.54124903 -64.50709326 120.44280882 -59.5625 115.625 C-55.57364276 113.09548078 -53.84172495 112 -49 112 C-50.19800675 106.26770299 -52.20752358 103.12889716 -56.5234375 99.12890625 C-57.06602203 98.60288315 -57.60860657 98.07686005 -58.16763306 97.53489685 C-59.89180992 95.86482207 -61.6313444 94.21221072 -63.375 92.5625 C-80.29546577 76.5073925 -80.29546577 76.5073925 -81 65 C-79.15121545 63.15121545 -76.1209509 63.86529312 -73.64770508 63.8581543 C-72.98420044 63.85467987 -72.3206958 63.85120544 -71.63708496 63.84762573 C-70.19111284 63.84025593 -68.7451293 63.8349171 -67.29914284 63.83133507 C-65.00798453 63.8241827 -62.71704205 63.80852375 -60.4259491 63.78999329 C-53.9098922 63.73747936 -47.39394928 63.68958179 -40.87768555 63.67407227 C-36.89516864 63.66397063 -32.9131881 63.63458577 -28.93088341 63.59275246 C-27.41474154 63.58046226 -25.8985238 63.57531759 -24.38233376 63.57755089 C-22.25406715 63.57991326 -20.12732727 63.55766851 -17.99926758 63.5300293 C-16.18511101 63.52122993 -16.18511101 63.52122993 -14.33430481 63.51225281 C-9.53811154 62.77540851 -6.41437639 60.56069119 -3.1875 57 C-1.05648973 53.41093007 -0.86600825 49.98104745 -0.79467773 45.86425781 C-0.77473251 44.84350159 -0.75478729 43.82274536 -0.73423767 42.77105713 C-0.71752518 41.67613953 -0.70081268 40.58122192 -0.68359375 39.453125 C-0.6524221 37.76361725 -0.6524221 37.76361725 -0.62062073 36.03997803 C-0.55525667 32.44338051 -0.49630115 28.84671023 -0.4375 25.25 C-0.3943023 22.8111904 -0.3506876 20.37238816 -0.30664062 17.93359375 C-0.1995887 11.955806 -0.09779783 5.97794593 0 0 Z " fill="#A4C1DA" transform="translate(355,323)"/>
<path d="M0 0 C0.68930465 -0.00382555 1.37860931 -0.00765109 2.08880198 -0.01159257 C4.39795286 -0.02190918 6.70685447 -0.01793301 9.01602173 -0.01396179 C10.67188243 -0.01830905 12.32774111 -0.02349224 13.9835968 -0.02944946 C18.48157587 -0.04285015 22.97947096 -0.04341688 27.47746611 -0.04088616 C31.23243914 -0.03981705 34.98739514 -0.04469836 38.74236453 -0.04949158 C47.60166293 -0.06059074 56.46091895 -0.06102206 65.32022095 -0.05497742 C74.45882809 -0.04893804 83.59728126 -0.06124678 92.73586214 -0.08254749 C100.5822661 -0.10016366 108.42862107 -0.10616477 116.27504408 -0.10290974 C120.96114959 -0.10109657 125.64714528 -0.10373639 130.33323288 -0.11762428 C134.740952 -0.13019805 139.14843119 -0.12826282 143.55614662 -0.11521339 C145.17263813 -0.11284697 146.78914649 -0.11558467 148.40561867 -0.12383652 C150.61501021 -0.13430061 152.82359619 -0.12620678 155.03295898 -0.11352539 C156.26849707 -0.11369313 157.50403515 -0.11386087 158.77701378 -0.1140337 C163.15911066 0.37375134 166.54771548 1.77107924 169.78799438 4.79585266 C173.8928697 10.16376653 174.2761095 13.23797901 174.20596313 19.88569641 C174.20145142 20.68749329 174.1969397 21.48929016 174.19229126 22.31538391 C174.18049482 24.29718647 174.16255919 26.27895074 174.14346313 28.26069641 C173.52213501 27.4808136 172.90080688 26.70093079 172.26065063 25.89741516 C168.05439351 20.65899531 164.97712425 17.89552945 158.0819397 16.98994446 C155.78652313 16.81315995 153.50758486 16.74212778 151.20596313 16.69819641 C150.43317017 16.6485675 149.6603772 16.5989386 148.86416626 16.54780579 C146.43662401 16.50471332 144.48085401 16.58635507 142.14346313 17.26069641 C140.55737342 18.82763646 140.55737342 18.82763646 139.13955688 20.74116516 C136.22006773 24.04952673 133.83585843 24.76858048 129.45170593 25.11096191 C126.45533145 25.21996401 123.47124434 25.2309422 120.47354126 25.17329407 C118.14672886 25.13574911 115.82936049 25.17298685 113.50283813 25.21772766 C102.55301942 25.24958232 102.55301942 25.24958232 98.87173462 22.66694641 C97.78630955 21.42265156 96.73457254 20.14785872 95.7250061 18.84126282 C93.10583916 16.22371314 90.37328211 16.40132141 86.80947876 16.40132141 C85.52073853 16.45546204 85.52073853 16.45546204 84.20596313 16.51069641 C83.35067017 16.50038391 82.4953772 16.49007141 81.61416626 16.47944641 C75.47341833 16.59186285 70.72493884 18.04142149 66.14346313 22.26069641 C62.77120378 26.631998 62.72418539 30.68103408 62.77456665 35.99482727 C62.77080017 36.863741 62.76703369 37.73265472 62.76315308 38.62789917 C62.75672994 40.50978455 62.75704187 42.39170238 62.76333809 44.27358818 C62.77245675 47.25409465 62.76221558 50.23397316 62.74671936 53.21444702 C62.70664009 61.68647805 62.70541757 70.1584594 62.70767212 78.63056946 C62.70772324 83.8171053 62.68854478 89.00330205 62.65833855 94.18974495 C62.64751907 97.12246768 62.65964021 100.05454179 62.67216492 102.98724365 C62.66325934 104.79055928 62.65318455 106.59386963 62.64175415 108.39717102 C62.6563694 109.6153804 62.6563694 109.6153804 62.67127991 110.85820007 C62.60479749 116.12202073 61.58704243 119.06149404 58.14346313 123.26069641 C53.4154901 127.62497921 49.17450486 129.49818655 42.74575806 129.55122375 C41.69083664 129.56398346 40.63591522 129.57674316 39.54902649 129.58988953 C38.41874527 129.59211517 37.28846405 129.59434082 36.12393188 129.59663391 C34.95139359 129.60329071 33.77885529 129.60994751 32.57078552 129.61680603 C30.09201626 129.62692249 27.61321982 129.63162336 25.13442993 129.63130188 C21.3550796 129.63566855 17.57690334 129.67198333 13.79776001 129.70991516 C11.38565461 129.71578488 8.97354369 129.71975324 6.56143188 129.72163391 C4.87511909 129.74319046 4.87511909 129.74319046 3.15473938 129.7651825 C-3.29680605 129.72788556 -8.55542551 129.19608482 -13.85653687 125.26069641 C-17.61823838 120.63090993 -18.97310202 116.8645233 -18.99697876 110.99916077 C-19.00554398 109.73351036 -19.00554398 109.73351036 -19.01428223 108.44229126 C-19.01540009 107.52481613 -19.01651794 106.607341 -19.01766968 105.6620636 C-19.02263458 104.68921921 -19.02759949 103.71637482 -19.03271484 102.71405029 C-19.04732092 99.4952168 -19.05413622 96.2764326 -19.05966187 93.05757141 C-19.06541499 90.81800841 -19.0711727 88.57844542 -19.07693481 86.33888245 C-19.08744065 81.64143138 -19.09328593 76.94399741 -19.09677124 72.24653625 C-19.10225233 66.2365225 -19.12627408 60.2267357 -19.15474319 54.21679306 C-19.17339659 49.58930305 -19.17857664 44.96186739 -19.18010712 40.33434296 C-19.18312851 38.11923737 -19.19113965 35.90413262 -19.2042923 33.68906403 C-19.22140751 30.58483785 -19.21945891 27.48116198 -19.21298218 24.37690735 C-19.22219696 23.46752914 -19.23141174 22.55815094 -19.24090576 21.62121582 C-19.2031915 15.83084871 -18.30142565 11.5345047 -15.85653687 6.26069641 C-10.85614621 1.3885209 -6.91776616 0.01150102 0 0 Z " fill="#D5E5EF" transform="translate(180.85653686523438,66.73930358886719)"/>
<path d="M0 0 C0.86044922 -0.00193359 1.72089844 -0.00386719 2.60742188 -0.00585938 C3.48849609 0.01798828 4.36957031 0.04183594 5.27734375 0.06640625 C6.16228516 0.05544922 7.04722656 0.04449219 7.95898438 0.03320312 C12.21006774 0.08103977 14.60371672 0.24724454 18.2734375 2.5390625 C20.91764276 5.38544039 21.34017106 6.89375054 21.3687439 10.67012024 C21.37734436 11.51547333 21.38594482 12.36082642 21.39480591 13.23179626 C21.39906586 14.16117508 21.40332581 15.09055389 21.40771484 16.0480957 C21.41998108 17.51415253 21.41998108 17.51415253 21.43249512 19.00982666 C21.45736908 22.25394065 21.47386959 25.49801085 21.48828125 28.7421875 C21.49360493 29.84840139 21.4989286 30.95461529 21.5044136 32.09435081 C21.53115289 37.94855431 21.550526 43.80273641 21.56494141 49.65698242 C21.58159819 55.71009781 21.62638289 61.7626697 21.67731285 67.81557941 C21.71093284 72.4643976 21.72251308 77.1130859 21.72816849 81.76201439 C21.73489462 83.99358465 21.75015178 86.22514596 21.7740593 88.45659828 C21.80560249 91.57869684 21.80576363 94.6993178 21.79833984 97.8215332 C21.81474518 98.74483932 21.83115051 99.66814545 21.84805298 100.61943054 C21.8040782 105.13302124 21.68203929 107.02398871 18.84184265 110.70143127 C15.88263456 112.87265394 14.46523324 113.27052413 10.8359375 113.29296875 C9.33063477 113.30263672 9.33063477 113.30263672 7.79492188 113.3125 C6.75787109 113.29316406 5.72082031 113.27382813 4.65234375 113.25390625 C3.61142578 113.27324219 2.57050781 113.29257812 1.49804688 113.3125 C-6.07113106 113.26382361 -6.07113106 113.26382361 -9.5 110.21484375 C-10.78515625 107.62890625 -10.78515625 107.62890625 -10.78515625 105.62890625 C-18.70515625 105.62890625 -26.62515625 105.62890625 -34.78515625 105.62890625 C-35.28015625 107.60890625 -35.28015625 107.60890625 -35.78515625 109.62890625 C-35.78515625 107.97890625 -35.78515625 106.32890625 -35.78515625 104.62890625 C-40.73515625 104.62890625 -45.68515625 104.62890625 -50.78515625 104.62890625 C-50.78515625 106.60890625 -50.78515625 108.58890625 -50.78515625 110.62890625 C-53.35295593 118.1820617 -58.02284103 123.97885844 -65.0859375 127.6796875 C-71.18794595 129.82554575 -78.56645582 129.78218164 -84.66015625 127.50390625 C-91.35863439 123.48481937 -95.50057088 119.89892474 -98.125 112.34375 C-100.14438684 104.039171 -99.16486926 97.88280593 -94.78515625 90.62890625 C-96.10515625 89.96890625 -97.42515625 89.30890625 -98.78515625 88.62890625 C-97.73328125 88.54640625 -96.68140625 88.46390625 -95.59765625 88.37890625 C-91.38510355 87.55020736 -89.99212501 86.3548297 -86.78515625 83.62890625 C-80.80619534 80.40645063 -75.67071989 80.17523963 -68.953125 80.1953125 C-67.92133621 80.19007065 -66.88954742 80.1848288 -65.82649231 80.1794281 C-63.65053199 80.17302559 -61.47453697 80.17432186 -59.29858398 80.18286133 C-55.99334068 80.19135311 -52.68983775 80.16261288 -49.38476562 80.13085938 C-47.26171926 80.12924654 -45.13866987 80.12982647 -43.015625 80.1328125 C-42.03925583 80.12157852 -41.06288666 80.11034454 -40.05693054 80.09877014 C-32.08951036 80.17848242 -24.89079985 82.06915053 -18.41015625 86.87890625 C-16.10804929 89.29063735 -15.02255553 90.87858435 -13.62109375 93.80078125 C-13.09974854 94.87730957 -13.09974854 94.87730957 -12.56787109 95.97558594 C-12.3095752 96.52118164 -12.0512793 97.06677734 -11.78515625 97.62890625 C-11.78595184 96.4874263 -11.78674744 95.34594635 -11.78756714 94.1698761 C-11.79116907 83.41371888 -11.76339412 72.65803965 -11.70487785 61.90203571 C-11.67580246 56.37215736 -11.65779301 50.84270365 -11.66503906 45.31274414 C-11.67162515 39.97617066 -11.64918782 34.64043683 -11.60660172 29.30403709 C-11.59545771 27.26791561 -11.59478196 25.2317091 -11.60473251 23.19558144 C-11.61688489 20.34340419 -11.59186215 17.49379778 -11.55810547 14.6418457 C-11.57032639 13.79955414 -11.5825473 12.95726257 -11.59513855 12.08944702 C-11.47592271 6.50165037 -11.47592271 6.50165037 -9.48371601 3.98461056 C-6.44121683 1.3522423 -4.0235728 -0.00376621 0 0 Z " fill="#473D4C" transform="translate(293.78515625,242.37109375)"/>
<path d="M0 0 C8.61271551 6.88685344 14.54492627 15.4628973 16.02734375 26.62109375 C17.18282911 37.442058 14.50302362 47.0720467 8.21484375 55.99609375 C3.91348354 61.24219716 -0.90284475 65.586188 -6.97265625 68.62109375 C-7.30265625 82.81109375 -7.63265625 97.00109375 -7.97265625 111.62109375 C-8.30265625 111.62109375 -8.63265625 111.62109375 -8.97265625 111.62109375 C-8.97265625 97.76109375 -8.97265625 83.90109375 -8.97265625 69.62109375 C-11.94265625 70.61109375 -11.94265625 70.61109375 -14.97265625 71.62109375 C-17.19506836 71.87988281 -17.19506836 71.87988281 -19.25 71.88671875 C-20.39178711 71.89058594 -20.39178711 71.89058594 -21.55664062 71.89453125 C-22.33330078 71.88679688 -23.10996094 71.8790625 -23.91015625 71.87109375 C-25.0693457 71.88269531 -25.0693457 71.88269531 -26.25195312 71.89453125 C-27.01443359 71.89195312 -27.77691406 71.889375 -28.5625 71.88671875 C-29.58138306 71.88333496 -29.58138306 71.88333496 -30.62084961 71.87988281 C-33.86280413 71.52314329 -36.85982893 70.57047426 -39.97265625 69.62109375 C-39.95625394 76.38023549 -39.90104212 83.1382988 -39.82006836 89.89697266 C-39.79701024 92.19149786 -39.78252156 94.48612707 -39.77709961 96.78076172 C-40.09622067 117.16834892 -40.09622067 117.16834892 -30.66015625 134.62109375 C-23.8793895 140.61441662 -16.80503955 142.38715785 -7.97265625 143.62109375 C-7.88628906 144.17796875 -7.79992187 144.73484375 -7.7109375 145.30859375 C-6.33271711 152.79397423 -3.72830791 158.81012502 2.46484375 163.49609375 C5.49182732 165.46761594 8.52666798 166.68188806 12.02734375 167.62109375 C12.02734375 167.95109375 12.02734375 168.28109375 12.02734375 168.62109375 C6.4772658 168.72047531 0.92771357 168.79280335 -4.62304688 168.84082031 C-6.50855541 168.86085142 -8.39400248 168.88808448 -10.27929688 168.92285156 C-13.00015487 168.97174647 -15.72018681 168.99414757 -18.44140625 169.01171875 C-19.69189758 169.04268646 -19.69189758 169.04268646 -20.96765137 169.07427979 C-26.72726127 169.07645432 -31.20054035 167.95339874 -35.97265625 164.62109375 C-40.84111988 158.62913851 -41.120243 153.75479714 -41.08618164 146.27246094 C-41.08632767 145.43306976 -41.08647369 144.59367859 -41.08662415 143.72885132 C-41.08592832 140.95853071 -41.07815132 138.1882776 -41.0703125 135.41796875 C-41.06844715 133.49554481 -41.0670238 131.57312039 -41.06602478 129.6506958 C-41.06220882 124.593818 -41.05238637 119.53696898 -41.0413208 114.48010254 C-41.0310869 109.31877024 -41.02652292 104.15743328 -41.02148438 98.99609375 C-41.0107633 88.87108112 -40.9936979 78.74608983 -40.97265625 68.62109375 C-42.14852295 68.16186523 -42.14852295 68.16186523 -43.34814453 67.69335938 C-52.188052 64.08174322 -57.93043214 56.86155347 -62.0390625 48.43359375 C-66.08655882 37.7966952 -65.81579735 26.23925678 -61.97265625 15.62109375 C-56.24641347 3.9570847 -48.12075025 -2.98452845 -35.97265625 -7.37890625 C-23.12309196 -10.55088989 -10.64566402 -7.71955022 0 0 Z " fill="#565B6E" transform="translate(202.97265625,219.37890625)"/>
<path d="M0 0 C3.33316277 -0.08811914 6.66602047 -0.14076197 10 -0.1875 C10.93457031 -0.21263672 11.86914062 -0.23777344 12.83203125 -0.26367188 C20.69452692 -0.34614561 27.53610592 0.84438646 33.61328125 6.35546875 C38.60379963 12.27380182 40 17.28627227 40 25 C32.08 25 24.16 25 16 25 C15.67 27.97 15.34 30.94 15 34 C14.01 35.65 13.02 37.3 12 39 C25.86 39.495 25.86 39.495 40 40 C40 47.4040012 39.07745442 51.03610883 35 57 C28.19915491 63.80084509 20.97591095 65.28661557 11.6640625 65.4140625 C10.78471039 65.43342865 9.90535828 65.4527948 8.99935913 65.4727478 C6.20800282 65.53222815 3.41660457 65.5788021 0.625 65.625 C-1.27475694 65.66320885 -3.1744971 65.70226226 -5.07421875 65.7421875 C-9.7160085 65.83790357 -14.35787929 65.9220504 -19 66 C-18.59357269 66.40053589 -18.18714539 66.80107178 -17.7684021 67.21374512 C-15.91290565 69.04572831 -14.0618996 70.88218605 -12.2109375 72.71875 C-11.57148193 73.3487793 -10.93202637 73.97880859 -10.27319336 74.62792969 C-5.26487198 79.60700065 -2.05350505 83.04967522 0 90 C0 97.26 0 104.52 0 112 C-16.17 112 -32.34 112 -49 112 C-49.66 109.69 -50.32 107.38 -51 105 C-52.79957912 102.831391 -54.47896805 101.02372143 -56.5234375 99.12890625 C-57.3373143 98.3398716 -57.3373143 98.3398716 -58.16763306 97.53489685 C-59.89180992 95.86482207 -61.6313444 94.21221072 -63.375 92.5625 C-80.29546577 76.5073925 -80.29546577 76.5073925 -81 65 C-79.15121545 63.15121545 -76.1209509 63.86529312 -73.64770508 63.8581543 C-72.98420044 63.85467987 -72.3206958 63.85120544 -71.63708496 63.84762573 C-70.19111284 63.84025593 -68.7451293 63.8349171 -67.29914284 63.83133507 C-65.00798453 63.8241827 -62.71704205 63.80852375 -60.4259491 63.78999329 C-53.9098922 63.73747936 -47.39394928 63.68958179 -40.87768555 63.67407227 C-36.89516864 63.66397063 -32.9131881 63.63458577 -28.93088341 63.59275246 C-27.41474154 63.58046226 -25.8985238 63.57531759 -24.38233376 63.57755089 C-22.25406715 63.57991326 -20.12732727 63.55766851 -17.99926758 63.5300293 C-16.18511101 63.52122993 -16.18511101 63.52122993 -14.33430481 63.51225281 C-9.53811154 62.77540851 -6.41437639 60.56069119 -3.1875 57 C-1.05648973 53.41093007 -0.86600825 49.98104745 -0.79467773 45.86425781 C-0.77473251 44.84350159 -0.75478729 43.82274536 -0.73423767 42.77105713 C-0.71752518 41.67613953 -0.70081268 40.58122192 -0.68359375 39.453125 C-0.6524221 37.76361725 -0.6524221 37.76361725 -0.62062073 36.03997803 C-0.55525667 32.44338051 -0.49630115 28.84671023 -0.4375 25.25 C-0.3943023 22.8111904 -0.3506876 20.37238816 -0.30664062 17.93359375 C-0.1995887 11.955806 -0.09779783 5.97794593 0 0 Z " fill="#453B4A" transform="translate(355,323)"/>
<path d="M0 0 C6.44116617 -0.07622102 12.8822155 -0.12867158 19.32373047 -0.16479492 C21.51387885 -0.17985806 23.70399719 -0.20031259 25.89404297 -0.22631836 C29.04662503 -0.26280989 32.19880737 -0.27975139 35.3515625 -0.29296875 C36.32678864 -0.30845261 37.30201477 -0.32393646 38.30679321 -0.33988953 C44.55155059 -0.34142675 49.12293222 0.2918167 53.86328125 4.75390625 C54.34152344 5.35074219 54.81976563 5.94757813 55.3125 6.5625 C56.04919922 7.46162109 56.04919922 7.46162109 56.80078125 8.37890625 C58.79375887 11.07299652 59.12438366 12.7418362 59.12025452 16.03689575 C59.12162918 16.88106049 59.12300385 17.72522522 59.12442017 18.5949707 C59.11902725 19.98679565 59.11902725 19.98679565 59.11352539 21.40673828 C59.11367142 22.38238739 59.11381744 23.3580365 59.1139679 24.36325073 C59.11326935 27.59896034 59.10547966 30.8346129 59.09765625 34.0703125 C59.09579186 36.30947844 59.09436806 38.54864479 59.09336853 40.78781128 C59.08954498 46.68972901 59.07971607 52.59162224 59.06866455 58.49353027 C59.05844694 64.51261056 59.05387016 70.5316948 59.04882812 76.55078125 C59.03809367 88.36719828 59.02101918 100.18359711 59 112 C58.17387207 112.00410889 57.34774414 112.00821777 56.49658203 112.01245117 C53.3835014 112.03968246 50.27171457 112.08902839 47.15917969 112.15258789 C45.16883601 112.18674765 43.17811696 112.19619144 41.1875 112.20507812 C32.30271491 112.40700506 24.52233967 113.47766033 18 120 C14.375 120.125 14.375 120.125 11 120 C10.75198893 114.00461865 10.57098731 108.01224498 10.45068359 102.01293945 C10.40052326 99.97464986 10.33237246 97.93671785 10.24560547 95.8996582 C9.5405092 78.91513345 9.5405092 78.91513345 13.13647461 74.1965332 C15.69585685 72.43172505 18.16529337 71.25114324 21 70 C28.05544761 63.81069844 33.3266683 53.95408145 34.23828125 44.5390625 C34.50410316 34.10205471 32.5666115 23.94097456 25.69140625 15.7734375 C18.11709631 7.83178228 10.59214213 3.70437671 0 1 C0 0.67 0 0.34 0 0 Z " fill="#D5E5EF" transform="translate(184,211)"/>
<path d="M0 0 C1.68227188 -0.01429802 1.68227188 -0.01429802 3.39852905 -0.02888489 C4.605867 -0.02797348 5.81320496 -0.02706207 7.05712891 -0.02612305 C8.30241364 -0.03040817 9.54769836 -0.0346933 10.83071899 -0.03910828 C13.46525169 -0.04485216 16.0993927 -0.04628676 18.73388672 -0.04101562 C21.43034512 -0.03637792 24.12635345 -0.04331831 26.82275391 -0.06152344 C30.71351855 -0.08603107 34.60379666 -0.09017821 38.49462891 -0.08862305 C40.29956314 -0.10243767 40.29956314 -0.10243767 42.14096069 -0.11653137 C48.78401698 -0.07984268 53.95553627 0.05116659 59.05322266 4.80981445 C69.87552392 18.96205457 63.40869141 18.62607121 63.40869141 48.2746582 C36.67869141 48.2746582 9.94869141 48.2746582 -17.59130859 48.2746582 C-17.59130859 14.2746582 -17.59130859 14.2746582 -14.59130859 6.2746582 C-10.09443013 1.89308431 -6.24918847 0.02921256 0 0 Z " fill="#A4C1DA" transform="translate(307.59130859375,434.725341796875)"/>
<path d="M0 0 C1 1 1 1 1.5546875 3.53369141 C0.67829377 9.01038077 -2.97779826 11.71699818 -6.875 15.4609375 C-7.67405762 16.25150543 -8.47311523 17.04207336 -9.29638672 17.8565979 C-11.85052091 20.37715951 -14.42472414 22.87606062 -17 25.375 C-18.7357386 27.0806447 -20.4701311 28.78766042 -22.203125 30.49609375 C-26.45326117 34.68009387 -30.72006339 38.84650043 -35 43 C-30.48880387 48.38254983 -30.48880387 48.38254983 -25.53515625 53.3515625 C-24.67760742 54.16367188 -24.67760742 54.16367188 -23.80273438 54.9921875 C-22.62409978 56.09806688 -21.43625212 57.19419422 -20.24023438 58.28125 C-16.11218915 62.23433798 -16.11218915 62.23433798 -15.62109375 65.5859375 C-17.82244985 69.43986971 -21.1704548 70.91848215 -25 73 C-25.90830566 73.51401367 -26.81661133 74.02802734 -27.75244141 74.55761719 C-30.92862513 76.34957693 -34.11894988 78.11418693 -37.3125 79.875 C-38.4963783 80.52972774 -39.68013242 81.18468008 -40.86376953 81.83984375 C-42.70473499 82.85873472 -44.54582251 83.87740039 -46.38739014 84.89520264 C-50.70122953 87.27945183 -55.01024747 89.67222221 -59.31640625 92.0703125 C-60.51196173 92.73584193 -61.70751836 93.40136929 -62.90307617 94.06689453 C-65.14437797 95.31481153 -67.3854434 96.56315318 -69.6262207 97.81201172 C-71.69761754 98.96412679 -73.77233604 100.1102933 -75.85058594 101.25 C-78.08896864 102.4937773 -80.29769351 103.76000083 -82.50097656 105.0625 C-83.65942713 105.72930233 -84.8179537 106.39597264 -85.9765625 107.0625 C-87.01119629 107.67222656 -88.04583008 108.28195313 -89.11181641 108.91015625 C-92 110 -92 110 -94.81396484 109.43359375 C-97 108 -97 108 -97.96899414 106.08203125 C-98.00989101 103.33582234 -97.36725225 102.68034823 -95.49609375 100.6875 C-94.84753418 99.99269531 -94.19897461 99.29789062 -93.53076172 98.58203125 C-92.69561035 97.72996094 -91.86045898 96.87789063 -91 96 C-90.48012512 95.46938965 -89.96025024 94.9387793 -89.42462158 94.39208984 C-85.0044676 89.89388991 -80.5361015 85.44493496 -76.0625 81 C-74.69703255 79.63955682 -73.33179614 78.27888169 -71.96679688 76.91796875 C-68.64719114 73.6092969 -65.32446727 70.30378678 -62 67 C-63.41614514 63.74466446 -65.11184264 61.70301907 -67.6953125 59.28515625 C-68.41074219 58.59873047 -69.12617188 57.91230469 -69.86328125 57.20507812 C-71.37327267 55.77462857 -72.8889375 54.35014461 -74.41015625 52.93164062 C-75.47943359 51.90006836 -75.47943359 51.90006836 -76.5703125 50.84765625 C-77.22789551 50.22898682 -77.88547852 49.61031738 -78.56298828 48.97290039 C-80.39190407 46.46194754 -80.41922143 45.04185075 -80 42 C-75.77322864 37.49204857 -69.53406711 34.92351904 -64.125 32.0625 C-55.8169241 27.61836679 -47.5635028 23.09831146 -39.375 18.4375 C-36.54595676 16.83562048 -33.71614261 15.23510952 -30.88623047 13.63476562 C-28.90713862 12.51380479 -26.92967995 11.38995703 -24.95361328 10.26367188 C-21.95516516 8.55898008 -18.94756379 6.87157663 -15.9375 5.1875 C-15.02726074 4.66534912 -14.11702148 4.14319824 -13.17919922 3.60522461 C-5.20007711 -0.82369221 -5.20007711 -0.82369221 0 0 Z " fill="#F58720" transform="translate(488,73)"/>
<path d="M0 0 C5.08742108 1.66515403 7.96537752 5.06776176 11.63232422 8.86352539 C12.40069611 9.63897202 13.16906799 10.41441864 13.96072388 11.21336365 C16.40752779 13.68811262 18.83635761 16.17969026 21.26513672 18.67211914 C22.92283473 20.35489947 24.5816762 22.0365542 26.24169922 23.71704102 C30.30452767 27.83494065 34.35274233 31.96678791 38.39013672 36.10961914 C39.49402615 35.17859324 40.59572656 34.24497158 41.6965332 33.31030273 C42.31028305 32.79067963 42.9240329 32.27105652 43.55638123 31.73568726 C45.29462246 30.19431565 46.89908978 28.59229741 48.48779297 26.89868164 C48.97957031 26.37661133 49.47134766 25.85454102 49.97802734 25.31665039 C50.97464628 24.24743007 51.96144257 23.16898215 52.93896484 22.08227539 C55.32698634 19.57814772 57.09422624 18.19200545 60.44873047 17.25805664 C63.74513706 18.2123948 64.06069231 18.58558129 65.83544922 21.34008789 C66.70576561 22.9197433 67.55531297 24.51092244 68.39013672 26.10961914 C69.46894236 28.0234651 70.54981995 29.93614401 71.63232422 31.84790039 C72.84535414 34.03814909 74.05618071 36.22961912 75.26513672 38.42211914 C75.91984154 39.60527778 76.57479433 40.78829924 77.22998047 41.97119141 C78.59397682 44.43440325 79.95690744 46.89819953 81.31884766 49.36254883 C84.02795623 54.26421353 86.74060325 59.16391122 89.45703125 64.06152344 C90.70672727 66.31485888 91.9551855 68.56888143 93.20214844 70.82373047 C93.77980957 71.86553467 94.3574707 72.90733887 94.95263672 73.98071289 C95.78988281 75.49834229 95.78988281 75.49834229 96.64404297 77.04663086 C97.85658689 79.1736689 99.11840885 81.27306544 100.41748047 83.34838867 C101.06845703 84.39494629 101.71943359 85.44150391 102.39013672 86.51977539 C102.98826172 87.45055908 103.58638672 88.38134277 104.20263672 89.34033203 C105.64898051 92.71325094 105.29803606 94.60924161 104.39013672 98.10961914 C101.91894531 99.09570312 101.91894531 99.09570312 98.39013672 99.10961914 C95.17011996 96.9314861 92.60497802 94.13584625 89.92919922 91.33227539 C89.13863129 90.53180283 88.34806335 89.73133026 87.53353882 88.90660095 C85.01052722 86.34438327 82.51291666 83.75891698 80.01513672 81.17211914 C78.30972292 79.43160054 76.60271003 77.69264724 74.89404297 75.95532227 C70.70734468 71.69141549 66.54125207 67.40815969 62.39013672 63.10961914 C59.171261 64.63563284 57.14097057 66.18089132 54.71044922 68.80493164 C54.02853516 69.52036133 53.34662109 70.23579102 52.64404297 70.97290039 C51.22452299 72.48097758 49.81302761 73.99664851 48.40966797 75.51977539 C47.72517578 76.23262695 47.04068359 76.94547852 46.33544922 77.67993164 C45.7220166 78.33751465 45.10858398 78.99509766 44.4765625 79.67260742 C41.69522107 81.58823762 39.69146298 81.36662964 36.39013672 81.10961914 C35.47216797 79.45727539 34.55419922 77.80493164 33.63623047 76.15258789 C33.03649414 75.07307861 32.43675781 73.99356934 31.81884766 72.88134766 C30.47437396 70.46130337 29.12998252 68.04121342 27.78564453 65.62109375 C23.70088355 58.26777173 19.6144087 50.91540901 15.52539062 43.56445312 C13.65832427 40.2048459 11.79568463 36.84280934 9.93310547 33.48071289 C7.64577793 29.35554355 5.33588618 25.24457635 3.00341797 21.14477539 C2.48553711 20.22623779 1.96765625 19.3077002 1.43408203 18.36132812 C0.47713158 16.66458621 -0.48782451 14.97232332 -1.46240234 13.28564453 C-5.41986893 6.22907642 -5.41986893 6.22907642 -4.60986328 2.10961914 C-2.60986328 0.10961914 -2.60986328 0.10961914 0 0 Z " fill="#F58720" transform="translate(27.60986328125,77.890380859375)"/>
<path d="M0 0 C2 3 2 3 3.3125 5.5 C5.34756122 8.51490551 6.69545542 9.46446048 10 11 C12.94386167 11.4333067 15.85439017 11.4202963 18.82592773 11.40405273 C19.70459503 11.41091599 20.58326233 11.41777924 21.48855591 11.42485046 C24.38706721 11.44312055 27.28503734 11.43928063 30.18359375 11.43359375 C32.20231807 11.43815548 34.22104084 11.44346103 36.23976135 11.44947815 C40.46890576 11.4584097 44.69786134 11.45598562 48.92700195 11.44604492 C54.34207811 11.43455593 59.7565021 11.45476564 65.17149258 11.48396206 C69.33999256 11.50232323 73.50833625 11.50203173 77.67686653 11.49632454 C79.67312599 11.49617131 81.66939603 11.50221687 83.66561699 11.51461601 C86.45905133 11.52952229 89.25128066 11.51885158 92.04467773 11.50170898 C92.86616806 11.51137695 93.68765839 11.52104492 94.53404236 11.53100586 C99.80980935 11.46333673 102.82483095 10.50797606 107 7 C108.39355764 5.04148656 109.74282547 3.04872887 111 1 C111.33 1 111.66 1 112 1 C112.10861833 3.70942393 112.18758577 6.414439 112.25 9.125 C112.28351563 9.88554687 112.31703125 10.64609375 112.3515625 11.4296875 C112.44414931 16.79972222 111.53892548 19.72621568 108 24 C102.72549122 28.75992256 98.71748965 29.14369135 91.83203125 29.09765625 C91.03721848 29.0962413 90.2424057 29.09482635 89.42350769 29.09336853 C86.88646675 29.08777378 84.34951425 29.07522228 81.8125 29.0625 C80.09179815 29.05748432 78.37109492 29.05292153 76.65039062 29.04882812 C72.4335597 29.03780607 68.21679484 29.02054506 64 29 C64 33.95 64 38.9 64 44 C31.99 44 -0.02 44 -33 44 C-33 39.05 -33 34.1 -33 29 C-31.081875 28.96132812 -31.081875 28.96132812 -29.125 28.921875 C-27.41663435 28.86555525 -25.70830233 28.80820882 -24 28.75 C-23.16082031 28.73582031 -22.32164062 28.72164062 -21.45703125 28.70703125 C-14.2283045 28.42684804 -8.57391476 26.7719082 -3.5625 21.375 C-0.74460387 17.09179788 -0.68591461 13.39216066 -0.4375 8.375 C-0.37272461 7.17230469 -0.37272461 7.17230469 -0.30664062 5.9453125 C-0.20048543 3.9637489 -0.09973145 1.98189729 0 0 Z " fill="#A1BED7" transform="translate(243,167)"/>
<path d="M0 0 C10.97895845 -0.06955363 21.95786435 -0.12283859 32.93699837 -0.15543652 C38.0352266 -0.171083 43.13330392 -0.19230283 48.23144531 -0.22631836 C53.15273392 -0.25894789 58.07387751 -0.27686067 62.99526596 -0.28463173 C64.8715226 -0.29016877 66.74777143 -0.30098128 68.62396622 -0.31719017 C71.25485551 -0.33901221 73.88514784 -0.34196493 76.51611328 -0.34057617 C77.2893544 -0.351362 78.06259552 -0.36214783 78.85926819 -0.3732605 C84.92632429 -0.33867558 88.92018072 1.08437698 93.375 5.1875 C93.91125 5.785625 94.4475 6.38375 95 7 C95.33 4.69 95.66 2.38 96 0 C106.97895845 -0.06955363 117.95786435 -0.12283859 128.93699837 -0.15543652 C134.0352266 -0.171083 139.13330392 -0.19230283 144.23144531 -0.22631836 C149.15273392 -0.25894789 154.07387751 -0.27686067 158.99526596 -0.28463173 C160.8715226 -0.29016877 162.74777143 -0.30098128 164.62396622 -0.31719017 C167.25485551 -0.33901221 169.88514784 -0.34196493 172.51611328 -0.34057617 C173.2893544 -0.351362 174.06259552 -0.36214783 174.85926819 -0.3732605 C180.36177677 -0.34189375 184.56335845 0.72541537 188.64453125 4.53515625 C192.17953069 9.15784782 193.12636325 11.18729043 193 17 C181.20419432 17.06946925 169.4084372 17.1227957 157.61246872 17.15543652 C152.13528983 17.17110141 146.65825076 17.19235486 141.18115234 17.22631836 C135.89677809 17.25888221 130.61253843 17.27684681 125.32807159 17.28463173 C123.31060924 17.29018057 121.29315436 17.30101593 119.27574921 17.31719017 C116.45287578 17.33892478 113.63056064 17.34196857 110.80761719 17.34057617 C109.97108109 17.351362 109.13454498 17.36214783 108.2726593 17.3732605 C104.81798835 17.35478632 102.45462794 17.27117256 99.44952393 15.47871399 C98.97118103 14.99073837 98.49283813 14.50276276 98 14 C97.67 14.99 97.34 15.98 97 17 C85.22149483 17.09267174 73.44307636 17.16375083 61.66428089 17.20724869 C56.19492022 17.2281253 50.72580894 17.25644465 45.2565918 17.30175781 C39.97868587 17.34521239 34.70101985 17.36913655 29.42294884 17.37950897 C27.40908722 17.386901 25.39523877 17.40133586 23.38147926 17.42292023 C20.56107817 17.45194883 17.74166897 17.4559562 14.92114258 17.45410156 C13.67173134 17.47567322 13.67173134 17.47567322 12.39707947 17.49768066 C8.43791065 17.46950153 6.45596511 17.28025297 3.00492859 15.15911865 C-0.07186713 11.84570038 -0.11883992 9.15067349 -0.0625 4.8125 C-0.05347656 3.91144531 -0.04445312 3.01039063 -0.03515625 2.08203125 C-0.02355469 1.39496094 -0.01195312 0.70789063 0 0 Z " fill="#473E4D" transform="translate(194,483)"/>
<path d="M0 0 C1.05550552 0.00424484 2.11101105 0.00848969 3.19850159 0.01286316 C6.55056896 0.02957826 9.90202235 0.06721787 13.25390625 0.10546875 C15.53449649 0.12052482 17.81509621 0.13421161 20.09570312 0.14648438 C25.66947827 0.17945825 31.24289838 0.22958607 36.81640625 0.29296875 C36.81640625 0.62296875 36.81640625 0.95296875 36.81640625 1.29296875 C28.40140625 1.78796875 28.40140625 1.78796875 19.81640625 2.29296875 C21.03328125 3.11796875 22.25015625 3.94296875 23.50390625 4.79296875 C27.71100349 7.97066986 30.87329046 11.33927441 32.81640625 16.29296875 C33.31140625 20.25296875 33.31140625 20.25296875 33.81640625 24.29296875 C41.73640625 24.29296875 49.65640625 24.29296875 57.81640625 24.29296875 C57.81640625 24.62296875 57.81640625 24.95296875 57.81640625 25.29296875 C49.89640625 25.29296875 41.97640625 25.29296875 33.81640625 25.29296875 C33.48640625 26.61296875 33.15640625 27.93296875 32.81640625 29.29296875 C32.81640625 27.64296875 32.81640625 25.99296875 32.81640625 24.29296875 C27.86640625 24.29296875 22.91640625 24.29296875 17.81640625 24.29296875 C17.81640625 26.27296875 17.81640625 28.25296875 17.81640625 30.29296875 C15.24860657 37.8461242 10.57872147 43.64292094 3.515625 47.34375 C-2.58638345 49.48960825 -9.96489332 49.44624414 -16.05859375 47.16796875 C-22.75707189 43.14888187 -26.89900838 39.56298724 -29.5234375 32.0078125 C-31.54282434 23.7032335 -30.56330676 17.54686843 -26.18359375 10.29296875 C-27.50359375 9.63296875 -28.82359375 8.97296875 -30.18359375 8.29296875 C-29.13171875 8.21046875 -28.07984375 8.12796875 -26.99609375 8.04296875 C-22.78354105 7.21426986 -21.39056251 6.0188922 -18.18359375 3.29296875 C-12.09409094 -0.03154888 -6.84945852 -0.1046111 0 0 Z " fill="#565B6E" transform="translate(225.18359375,322.70703125)"/>
<path d="M0 0 C14.62970887 -0.07013491 29.25939543 -0.12301009 43.88923836 -0.15543652 C50.68240103 -0.17089403 57.47545914 -0.19196206 64.26855469 -0.22631836 C70.82375573 -0.25945565 77.37888891 -0.27685164 83.93416977 -0.28463173 C86.43562404 -0.2901765 88.93707233 -0.30100397 91.43848038 -0.31719017 C94.94105142 -0.33895416 98.44317304 -0.34196728 101.94580078 -0.34057617 C102.98086258 -0.351362 104.01592438 -0.36214783 105.08235168 -0.3732605 C111.23544687 -0.34680162 115.93566595 0.13946964 120.64453125 4.53515625 C124.74940656 9.90307012 125.13264637 12.9772826 125.0625 19.625 C125.05798828 20.42679688 125.05347656 21.22859375 125.04882812 22.0546875 C125.03703168 24.03649006 125.01909605 26.01825433 125 28 C124.37867188 27.22011719 123.75734375 26.44023438 123.1171875 25.63671875 C118.91093037 20.39829889 115.83366112 17.63483304 108.93847656 16.72924805 C106.64306 16.55246354 104.36412173 16.48143137 102.0625 16.4375 C101.28970703 16.38787109 100.51691406 16.33824219 99.72070312 16.28710938 C97.29316088 16.24401691 95.33739088 16.32565866 93 17 C91.41391029 18.56694005 91.41391029 18.56694005 89.99609375 20.48046875 C87.0766046 23.78883032 84.6923953 24.50788407 80.3082428 24.8502655 C77.31186832 24.9592676 74.32778121 24.97024579 71.33007812 24.91259766 C69.00326573 24.8750527 66.68589736 24.91229044 64.359375 24.95703125 C53.40955628 24.98888591 53.40955628 24.98888591 49.72827148 22.40625 C48.64284642 21.16195515 47.59110941 19.88716231 46.58154297 18.58056641 C43.96237602 15.96301673 41.22981897 16.140625 37.66601562 16.140625 C36.37727539 16.19476563 36.37727539 16.19476563 35.0625 16.25 C33.77956055 16.23453125 33.77956055 16.23453125 32.47070312 16.21875 C26.16674766 16.33415422 21.84118147 17.94276183 17 22 C14.56098872 24.6256609 14.56098872 24.6256609 13 27 C12.96132812 25.48019531 12.96132812 25.48019531 12.921875 23.9296875 C12.86555819 22.57808403 12.80821167 21.22652319 12.75 19.875 C12.73582031 19.20984375 12.72164062 18.5446875 12.70703125 17.859375 C12.46005483 12.82105611 11.12210319 9.91272821 8 6 C5.43415478 3.74706274 2.84091885 1.8939459 0 0 Z " fill="#A4C2DB" transform="translate(230,67)"/>
<path d="M0 0 C3.33316277 -0.08811914 6.66602047 -0.14076197 10 -0.1875 C10.93457031 -0.21263672 11.86914062 -0.23777344 12.83203125 -0.26367188 C20.69452692 -0.34614561 27.53610592 0.84438646 33.61328125 6.35546875 C38.60379963 12.27380182 40 17.28627227 40 25 C32.08 25 24.16 25 16 25 C15.67 27.97 15.34 30.94 15 34 C14.01 35.65 13.02 37.3 12 39 C25.86 39.495 25.86 39.495 40 40 C40 47.4040012 39.07745442 51.03610883 35 57 C28.86400717 63.13599283 22.39896409 65.22142939 13.84388733 65.24884033 C12.45960793 65.2380545 12.45960793 65.2380545 11.04736328 65.22705078 C9.5683831 65.22748886 9.5683831 65.22748886 8.05952454 65.22793579 C4.81302981 65.22654675 1.56676695 65.21100542 -1.6796875 65.1953125 C-3.93555577 65.19158086 -6.19142567 65.1887346 -8.44729614 65.18673706 C-14.37549336 65.1791125 -20.30359209 65.15947403 -26.23175049 65.1373291 C-32.28469511 65.11684536 -38.33765569 65.10772993 -44.390625 65.09765625 C-56.26045986 65.0762271 -68.13022173 65.04210529 -80 65 C-80 64.67 -80 64.34 -80 64 C-79.14888641 63.99635437 -78.29777283 63.99270874 -77.42086792 63.98895264 C-69.38749006 63.95103628 -61.35451667 63.89414231 -53.32142448 63.81609726 C-49.19180623 63.7766411 -45.06240061 63.74444369 -40.93261719 63.72900391 C-36.94473701 63.71382475 -32.95744146 63.67935774 -28.96982193 63.63169098 C-27.45089941 63.61689 -25.93189341 63.60895972 -24.41289902 63.60811615 C-22.27968266 63.60574068 -20.14807447 63.5786192 -18.01513672 63.54589844 C-16.8026828 63.53701599 -15.59022888 63.52813354 -14.34103394 63.51898193 C-9.54364355 62.77377581 -6.41660914 60.56315492 -3.1875 57 C-1.05648973 53.41093007 -0.86600825 49.98104745 -0.79467773 45.86425781 C-0.77473251 44.84350159 -0.75478729 43.82274536 -0.73423767 42.77105713 C-0.71752518 41.67613953 -0.70081268 40.58122192 -0.68359375 39.453125 C-0.6524221 37.76361725 -0.6524221 37.76361725 -0.62062073 36.03997803 C-0.55525667 32.44338051 -0.49630115 28.84671023 -0.4375 25.25 C-0.3943023 22.8111904 -0.3506876 20.37238816 -0.30664062 17.93359375 C-0.1995887 11.955806 -0.09779783 5.97794593 0 0 Z " fill="#473E4D" transform="translate(355,323)"/>
<path d="M0 0 C5.63768555 2.97602732 8.78909452 7.29823366 11.875 12.75 C14.16107921 20.24325964 13.67718278 26.4877 10.1171875 33.47265625 C6.4539702 39.91530765 2.0392701 43.13819357 -5 45.4375 C-11.75729583 46.3762381 -18.31877782 46.35144688 -24.2890625 42.76171875 C-29.79416161 38.50092287 -33.54948219 33.29449329 -35 26.4375 C-35.8421106 19.32634385 -35.42082131 13.25824806 -31 7.4375 C-22.33384186 -1.54831152 -12.24004539 -4.8584848 0 0 Z " fill="#A5C3DC" transform="translate(214,109.5625)"/>
<path d="M0 0 C4.15422393 2.79958569 7.61888159 6.42526317 9.875 10.9375 C9.96175538 13.63643181 9.99057897 16.30919231 9.97265625 19.0078125 C9.9712413 19.80404022 9.96982635 20.60026794 9.96836853 21.42062378 C9.96276345 23.9679538 9.95021014 26.51519647 9.9375 29.0625 C9.93248565 30.78775915 9.92792263 32.51301967 9.92382812 34.23828125 C9.91364253 38.47141504 9.8940682 42.70435954 9.875 46.9375 C-1.015 46.9375 -11.905 46.9375 -23.125 46.9375 C-23.19421259 42.24129732 -23.25383911 37.54689399 -23.28979492 32.85058594 C-23.30479745 31.25612359 -23.32520621 29.66170192 -23.35131836 28.06738281 C-23.38808134 25.76356923 -23.40481155 23.4603054 -23.41796875 21.15625 C-23.43345261 20.45383179 -23.44893646 19.75141357 -23.46488953 19.02770996 C-23.4666547 13.72966376 -22.30238754 9.78091037 -20.125 4.9375 C-17.6875 2.5625 -17.6875 2.5625 -15.125 0.9375 C-14.526875 0.525 -13.92875 0.1125 -13.3125 -0.3125 C-8.68488687 -1.89911022 -4.52268586 -1.53771319 0 0 Z " fill="#D5E4EF" transform="translate(313.125,436.0625)"/>
<path d="M0 0 C4.15422393 2.79958569 7.61888159 6.42526317 9.875 10.9375 C9.96175538 13.63643181 9.99057897 16.30919231 9.97265625 19.0078125 C9.9712413 19.80404022 9.96982635 20.60026794 9.96836853 21.42062378 C9.96276345 23.9679538 9.95021014 26.51519647 9.9375 29.0625 C9.93248565 30.78775915 9.92792263 32.51301967 9.92382812 34.23828125 C9.91364253 38.47141504 9.8940682 42.70435954 9.875 46.9375 C-1.015 46.9375 -11.905 46.9375 -23.125 46.9375 C-23.19421259 42.24129732 -23.25383911 37.54689399 -23.28979492 32.85058594 C-23.30479745 31.25612359 -23.32520621 29.66170192 -23.35131836 28.06738281 C-23.38808134 25.76356923 -23.40481155 23.4603054 -23.41796875 21.15625 C-23.43345261 20.45383179 -23.44893646 19.75141357 -23.46488953 19.02770996 C-23.4666547 13.72966376 -22.30238754 9.78091037 -20.125 4.9375 C-17.6875 2.5625 -17.6875 2.5625 -15.125 0.9375 C-14.526875 0.525 -13.92875 0.1125 -13.3125 -0.3125 C-8.68488687 -1.89911022 -4.52268586 -1.53771319 0 0 Z " fill="#D5E4EF" transform="translate(217.125,436.0625)"/>
<path d="M0 0 C32.01 0 64.02 0 97 0 C97 4.95 97 9.9 97 15 C64.99 15 32.98 15 0 15 C0 10.05 0 5.1 0 0 Z " fill="#463B4B" transform="translate(210,196)"/>
<path d="M0 0 C0.33 0 0.66 0 1 0 C1.24234375 0.86882812 1.4846875 1.73765625 1.734375 2.6328125 C4.68654327 12.78372955 8.18667472 19.8493578 17 26 C22.11049623 28.41475337 27.41389484 29.40573349 33 30 C33.08636719 30.556875 33.17273438 31.11375 33.26171875 31.6875 C34.63993914 39.17288048 37.24434834 45.18903127 43.4375 49.875 C46.46448357 51.84652219 49.49932423 53.06079431 53 54 C53 54.33 53 54.66 53 55 C47.44992205 55.09938156 41.90036982 55.1717096 36.34960938 55.21972656 C34.46410084 55.23975767 32.57865377 55.26699073 30.69335938 55.30175781 C27.97250138 55.35065272 25.25246944 55.37305382 22.53125 55.390625 C21.28075867 55.42159271 21.28075867 55.42159271 20.00500488 55.45318604 C14.24539498 55.45536057 9.7721159 54.33230499 5 51 C1.25226637 46.38740477 -0.13158023 42.63199397 -0.11352539 36.78222656 C-0.11344986 35.96167786 -0.11337433 35.14112915 -0.11329651 34.29571533 C-0.10813522 33.41953552 -0.10297394 32.54335571 -0.09765625 31.640625 C-0.0962413 30.73624695 -0.09482635 29.8318689 -0.09336853 28.90008545 C-0.08777911 26.01668973 -0.07522853 23.13337218 -0.0625 20.25 C-0.05748363 18.29296987 -0.05292096 16.33593853 -0.04882812 14.37890625 C-0.03781313 9.58590747 -0.02055574 4.79296698 0 0 Z " fill="#D2E1EC" transform="translate(162,333)"/>
<path d="M0 0 C0.8510582 -0.00953201 1.70211639 -0.01906403 2.57896423 -0.02888489 C3.9602224 -0.02751778 3.9602224 -0.02751778 5.36938477 -0.02612305 C6.31386978 -0.03040817 7.2583548 -0.0346933 8.23146057 -0.03910828 C10.23128456 -0.04485766 12.23112947 -0.04534738 14.23095703 -0.04101562 C17.29504005 -0.03785803 20.35815577 -0.06129905 23.42211914 -0.08666992 C25.36287313 -0.08894304 27.30362972 -0.08964635 29.24438477 -0.08862305 C30.62260658 -0.10243767 30.62260658 -0.10243767 32.02867126 -0.11653137 C32.88288162 -0.11030258 33.73709198 -0.10407379 34.6171875 -0.09765625 C35.36838364 -0.09828568 36.11957977 -0.0989151 36.89353943 -0.0995636 C39.43130689 0.38013694 40.3188635 1.24483735 41.87329102 3.2746582 C42.23657227 5.90356445 42.23657227 5.90356445 42.18579102 8.8371582 C42.18192383 9.80782227 42.17805664 10.77848633 42.17407227 11.77856445 C41.87329102 14.2746582 41.87329102 14.2746582 39.87329102 16.2746582 C37.93113708 16.52189636 37.93113708 16.52189636 35.53125 16.51757812 C34.18491737 16.52219307 34.18491737 16.52219307 32.81138611 16.52690125 C31.84052567 16.51971573 30.86966522 16.51253021 29.86938477 16.50512695 C28.87576431 16.50466873 27.88214386 16.50421051 26.8584137 16.5037384 C24.75602017 16.5007143 22.65362893 16.4928233 20.55126953 16.48046875 C17.32063932 16.46221385 14.09029553 16.45995901 10.85961914 16.46020508 C8.82120519 16.45529001 6.78279319 16.44946173 4.74438477 16.44262695 C3.77150009 16.44151413 2.79861542 16.44040131 1.79624939 16.43925476 C0.90184647 16.43287491 0.00744354 16.42649506 -0.9140625 16.41992188 C-1.70522964 16.41611008 -2.49639679 16.41229828 -3.3115387 16.40837097 C-5.12670898 16.2746582 -5.12670898 16.2746582 -6.12670898 15.2746582 C-6.25208639 13.13157924 -6.30245263 10.98386935 -6.31420898 8.8371582 C-6.32838867 7.66282227 -6.34256836 6.48848633 -6.35717773 5.27856445 C-5.99864561 0.60549323 -4.28232099 0.02629306 0 0 Z " fill="#F9C908" transform="translate(281.126708984375,146.725341796875)"/>
<path d="M0 0 C3.81223512 -0.11745244 7.62399682 -0.18766603 11.4375 -0.25 C12.50677734 -0.28351563 13.57605469 -0.31703125 14.67773438 -0.3515625 C22.34969487 -0.44540911 28.90226642 0.40817954 34.8449707 5.6171875 C39.43053931 10.32348673 42 16.42419705 42 23 C34.08 23 26.16 23 18 23 C16.515 18.05 16.515 18.05 15 13 C12.34372856 8.13016903 9.06888391 4.40105027 4 2 C2.66569768 1.33527484 1.33220721 0.66891417 0 0 Z " fill="#463D4C" transform="translate(241,324)"/>
<path d="M0 0 C3.08102986 2.09781886 4.75962999 3.75727482 5.48095703 7.48657227 C5.67447921 10.50629242 5.68165116 13.47482809 5.625 16.5 C5.65400391 18.04880859 5.65400391 18.04880859 5.68359375 19.62890625 C5.65195792 24.53246033 5.62136566 27.15878237 2.6484375 31.18359375 C0 33 0 33 -3 33.5625 C-6.65907504 32.87642343 -8.35167676 31.57265686 -11 29 C-12.80739357 25.38521286 -12.22756068 21.16767454 -12.25 17.1875 C-12.270625 16.28451172 -12.29125 15.38152344 -12.3125 14.45117188 C-12.34157247 9.50521735 -12.32645556 5.95599505 -9 2 C-5.48175489 -0.34549674 -4.14224306 -0.57991403 0 0 Z " fill="#F48721" transform="translate(382,60)"/>
<path d="M0 0 C3.08102986 2.09781886 4.75962999 3.75727482 5.48095703 7.48657227 C5.67447921 10.50629242 5.68165116 13.47482809 5.625 16.5 C5.65400391 18.04880859 5.65400391 18.04880859 5.68359375 19.62890625 C5.65195792 24.53246033 5.62136566 27.15878237 2.6484375 31.18359375 C0 33 0 33 -3 33.5625 C-6.65907504 32.87642343 -8.35167676 31.57265686 -11 29 C-12.80739357 25.38521286 -12.22756068 21.16767454 -12.25 17.1875 C-12.270625 16.28451172 -12.29125 15.38152344 -12.3125 14.45117188 C-12.34157247 9.50521735 -12.32645556 5.95599505 -9 2 C-5.48175489 -0.34549674 -4.14224306 -0.57991403 0 0 Z " fill="#F48721" transform="translate(142,60)"/>
<path d="M0 0 C0.99386719 -0.03287109 1.98773438 -0.06574219 3.01171875 -0.09960938 C10.31713998 -0.15339762 10.31713998 -0.15339762 14.28125 2.74609375 C16.72368439 6.31142701 16.88181762 8.19932133 16.125 12.4375 C14.0392619 15.46050016 12.41750772 17.18712445 8.73291016 17.90087891 C5.84761576 18.07563588 3.0145268 18.06996891 0.125 18 C-0.85984375 18.01095703 -1.8446875 18.02191406 -2.859375 18.03320312 C-7.31422469 17.98805262 -10.11392051 17.8884396 -14 15.5859375 C-16.4299225 12.8016513 -16.875 11.12268876 -16.875 7.4375 C-13.24499107 -0.54851964 -7.77581063 0.04503365 0 0 Z " fill="#F58721" transform="translate(402.875,43.5625)"/>
<path d="M0 0 C0.99386719 -0.03287109 1.98773438 -0.06574219 3.01171875 -0.09960938 C10.31713998 -0.15339762 10.31713998 -0.15339762 14.28125 2.74609375 C16.72368439 6.31142701 16.88181762 8.19932133 16.125 12.4375 C14.0392619 15.46050016 12.41750772 17.18712445 8.73291016 17.90087891 C5.84761576 18.07563588 3.0145268 18.06996891 0.125 18 C-0.85984375 18.01095703 -1.8446875 18.02191406 -2.859375 18.03320312 C-7.31422469 17.98805262 -10.11392051 17.8884396 -14 15.5859375 C-16.4299225 12.8016513 -16.875 11.12268876 -16.875 7.4375 C-13.24499107 -0.54851964 -7.77581063 0.04503365 0 0 Z " fill="#F58721" transform="translate(354.875,43.5625)"/>
<path d="M0 0 C0.99386719 -0.03287109 1.98773438 -0.06574219 3.01171875 -0.09960938 C10.31713998 -0.15339762 10.31713998 -0.15339762 14.28125 2.74609375 C16.72368439 6.31142701 16.88181762 8.19932133 16.125 12.4375 C14.0392619 15.46050016 12.41750772 17.18712445 8.73291016 17.90087891 C5.84761576 18.07563588 3.0145268 18.06996891 0.125 18 C-0.85984375 18.01095703 -1.8446875 18.02191406 -2.859375 18.03320312 C-7.31422469 17.98805262 -10.11392051 17.8884396 -14 15.5859375 C-16.4299225 12.8016513 -16.875 11.12268876 -16.875 7.4375 C-13.24499107 -0.54851964 -7.77581063 0.04503365 0 0 Z " fill="#F58721" transform="translate(162.875,43.5625)"/>
<path d="M0 0 C0.99386719 -0.03287109 1.98773438 -0.06574219 3.01171875 -0.09960938 C10.31713998 -0.15339762 10.31713998 -0.15339762 14.28125 2.74609375 C16.72368439 6.31142701 16.88181762 8.19932133 16.125 12.4375 C14.0392619 15.46050016 12.41750772 17.18712445 8.73291016 17.90087891 C5.84761576 18.07563588 3.0145268 18.06996891 0.125 18 C-0.85984375 18.01095703 -1.8446875 18.02191406 -2.859375 18.03320312 C-7.31422469 17.98805262 -10.11392051 17.8884396 -14 15.5859375 C-16.4299225 12.8016513 -16.875 11.12268876 -16.875 7.4375 C-13.24499107 -0.54851964 -7.77581063 0.04503365 0 0 Z " fill="#F58721" transform="translate(114.875,43.5625)"/>
<path d="M0 0 C3.08102986 2.09781886 4.75962999 3.75727482 5.48095703 7.48657227 C5.67447921 10.50629242 5.68165116 13.47482809 5.625 16.5 C5.65400391 18.04880859 5.65400391 18.04880859 5.68359375 19.62890625 C5.65195792 24.53246033 5.62136566 27.15878237 2.6484375 31.18359375 C0 33 0 33 -3 33.5625 C-6.65907504 32.87642343 -8.35167676 31.57265686 -11 29 C-12.80739357 25.38521286 -12.22756068 21.16767454 -12.25 17.1875 C-12.270625 16.28451172 -12.29125 15.38152344 -12.3125 14.45117188 C-12.34157247 9.50521735 -12.32645556 5.95599505 -9 2 C-5.48175489 -0.34549674 -4.14224306 -0.57991403 0 0 Z " fill="#F48721" transform="translate(382,12)"/>
<path d="M0 0 C3.08102986 2.09781886 4.75962999 3.75727482 5.48095703 7.48657227 C5.67447921 10.50629242 5.68165116 13.47482809 5.625 16.5 C5.65400391 18.04880859 5.65400391 18.04880859 5.68359375 19.62890625 C5.65195792 24.53246033 5.62136566 27.15878237 2.6484375 31.18359375 C0 33 0 33 -3 33.5625 C-6.65907504 32.87642343 -8.35167676 31.57265686 -11 29 C-12.80739357 25.38521286 -12.22756068 21.16767454 -12.25 17.1875 C-12.270625 16.28451172 -12.29125 15.38152344 -12.3125 14.45117188 C-12.34157247 9.50521735 -12.32645556 5.95599505 -9 2 C-5.48175489 -0.34549674 -4.14224306 -0.57991403 0 0 Z " fill="#F48721" transform="translate(142,12)"/>
<path d="M0 0 C3.50252011 2.04313673 5.77361702 4.09787233 7 8 C7.47584595 12.28261351 7.27767535 14.47440024 5.25 18.3125 C2.65846166 21.40794858 0.81032484 22.72148849 -3.18359375 23.3359375 C-7.18287366 23.40524911 -9.42740621 23.34111971 -12.9375 21.25 C-16.53964699 17.3203851 -17.50721808 14.5158339 -17.39453125 9.03515625 C-16.68647817 5.38272403 -14.62465368 3.56216192 -12 1 C-8.29778834 -0.85110583 -4.04093083 -0.46454795 0 0 Z " fill="#72778B" transform="translate(172,228)"/>
<path d="M0 0 C4.40021656 0.36668471 6.744666 2.11670417 10 5 C10.886875 4.154375 11.77375 3.30875 12.6875 2.4375 C15.6008348 -0.02603251 15.6008348 -0.02603251 18.875 0.1875 C19.57625 0.455625 20.2775 0.72375 21 1 C21.8125 3.1875 21.8125 3.1875 22 6 C19.5625 8.8125 19.5625 8.8125 17 11 C18.01790655 13.27071461 18.77442829 14.80784632 20.6875 16.4375 C21.120625 16.953125 21.55375 17.46875 22 18 C21.6875 20.6875 21.6875 20.6875 21 23 C18.8125 23.8125 18.8125 23.8125 16 24 C13.1875 21.5625 13.1875 21.5625 11 19 C8.72928539 20.01790655 7.19215368 20.77442829 5.5625 22.6875 C5.046875 23.120625 4.53125 23.55375 4 24 C1.3125 23.6875 1.3125 23.6875 -1 23 C-1.8125 20.9375 -1.8125 20.9375 -2 18 C-0.58973707 15.45310725 1.13976035 13.23357494 3 11 C2.154375 10.278125 1.30875 9.55625 0.4375 8.8125 C-2 6 -2 6 -1.875 3.25 C-1 1 -1 1 0 0 Z " fill="#F7C709" transform="translate(321,109)"/>
<path d="M0 0 C4.40021656 0.36668471 6.744666 2.11670417 10 5 C10.886875 4.154375 11.77375 3.30875 12.6875 2.4375 C15.6008348 -0.02603251 15.6008348 -0.02603251 18.875 0.1875 C19.57625 0.455625 20.2775 0.72375 21 1 C21.8125 3.1875 21.8125 3.1875 22 6 C19.5625 8.8125 19.5625 8.8125 17 11 C18.01790655 13.27071461 18.77442829 14.80784632 20.6875 16.4375 C21.120625 16.953125 21.55375 17.46875 22 18 C21.6875 20.6875 21.6875 20.6875 21 23 C18.8125 23.8125 18.8125 23.8125 16 24 C13.1875 21.5625 13.1875 21.5625 11 19 C8.72928539 20.01790655 7.19215368 20.77442829 5.5625 22.6875 C5.046875 23.120625 4.53125 23.55375 4 24 C1.3125 23.6875 1.3125 23.6875 -1 23 C-1.8125 20.9375 -1.8125 20.9375 -2 18 C-0.58973707 15.45310725 1.13976035 13.23357494 3 11 C2.154375 10.278125 1.30875 9.55625 0.4375 8.8125 C-2 6 -2 6 -1.875 3.25 C-1 1 -1 1 0 0 Z " fill="#F7C709" transform="translate(257,109)"/>
<path d="M0 0 C0.66 -0.02191406 1.32 -0.04382813 2 -0.06640625 C5.19722018 0.93896963 6.26202312 2.76728554 8 5.5625 C9.04719925 11.39792757 9.10398769 16.78942887 5.9375 21.875 C2.22517402 24.0076128 0.21313687 24.32852489 -4 23.5625 C-6.8785313 20.79725615 -7.91253026 19.12397855 -8.53125 15.15234375 C-8.5209375 13.94707031 -8.510625 12.74179687 -8.5 11.5 C-8.5103125 10.29214844 -8.520625 9.08429688 -8.53125 7.83984375 C-7.72087684 2.84055636 -5.21488339 -0.01018532 0 0 Z " fill="#FBC906" transform="translate(299,323.4375)"/>
<path d="M0 0 C6.58567272 2.63426909 10.99163352 5.84122569 14.3203125 12.0859375 C15.51195879 15.44172302 15.24743805 18.47400779 15 22 C10.05 22 5.1 22 0 22 C0 14.74 0 7.48 0 0 Z " fill="#54596D" transform="translate(355,325)"/>
<path d="M0 0 C1.91015625 0.4453125 1.91015625 0.4453125 4.47265625 2.5078125 C6.35626596 6.35692799 6.11780025 8.36951401 4.91015625 12.4453125 C2.55658412 15.25149465 1.05588005 15.42449481 -2.58984375 15.9453125 C-6.08984375 15.4453125 -6.08984375 15.4453125 -8.52734375 13.3203125 C-10.35821234 9.95151429 -10.73235097 8.22004244 -10.08984375 4.4453125 C-7.4838503 0.31915621 -4.62422787 -0.2593025 0 0 Z " fill="#FAC907" transform="translate(221.08984375,339.5546875)"/>
<path d="M0 0 C1.91015625 0.4453125 1.91015625 0.4453125 4.47265625 2.5078125 C6.35626596 6.35692799 6.11780025 8.36951401 4.91015625 12.4453125 C2.54522199 15.26504181 1.08208975 15.42382081 -2.58984375 15.8828125 C-6.08984375 15.4453125 -6.08984375 15.4453125 -8.52734375 13.8828125 C-10.69380403 10.50313446 -10.65272377 8.38547263 -10.08984375 4.4453125 C-7.53315462 0.29069266 -4.61630624 -0.25885829 0 0 Z " fill="#A6C3DC" transform="translate(309.08984375,443.5546875)"/>
<path d="M0 0 C1.91015625 0.4453125 1.91015625 0.4453125 4.47265625 2.5078125 C6.35626596 6.35692799 6.11780025 8.36951401 4.91015625 12.4453125 C2.54522199 15.26504181 1.08208975 15.42382081 -2.58984375 15.8828125 C-6.08984375 15.4453125 -6.08984375 15.4453125 -8.52734375 13.8828125 C-10.69380403 10.50313446 -10.65272377 8.38547263 -10.08984375 4.4453125 C-7.53315462 0.29069266 -4.61630624 -0.25885829 0 0 Z " fill="#A6C3DC" transform="translate(213.08984375,443.5546875)"/>
<path d="M0 0 C0.66 0.33 1.32 0.66 2 1 C-0.31 3.31 -2.62 5.62 -5 8 C-5.33 7.34 -5.66 6.68 -6 6 C-2.25 1.125 -2.25 1.125 0 0 Z " fill="#CEDFEC" transform="translate(298,437)"/>
<path d="M0 0 C0.66 0.33 1.32 0.66 2 1 C-0.31 3.31 -2.62 5.62 -5 8 C-5.33 7.34 -5.66 6.68 -6 6 C-2.25 1.125 -2.25 1.125 0 0 Z " fill="#CEDFEC" transform="translate(202,437)"/>
<path d="M0 0 C0.66 0.33 1.32 0.66 2 1 C-0.31 3.31 -2.62 5.62 -5 8 C-5.33 7.34 -5.66 6.68 -6 6 C-2.25 1.125 -2.25 1.125 0 0 Z " fill="#CEDFEC" transform="translate(170,69)"/>
</svg>
